<svg width="122" height="134" viewBox="0 0 122 134" fill="none" xmlns="http://www.w3.org/2000/svg">
<path d="M104.75 60.75H17.25C10.3464 60.75 4.75 66.3464 4.75 73.25V117C4.75 123.904 10.3464 129.5 17.25 129.5H104.75C111.654 129.5 117.25 123.904 117.25 117V73.25C117.25 66.3464 111.654 60.75 104.75 60.75Z" stroke="#171717" stroke-width="8" stroke-linecap="round" stroke-linejoin="round"/>
<path d="M29.75 60.75V35.75C29.75 27.462 33.0424 19.5134 38.9029 13.6529C44.7634 7.7924 52.712 4.5 61 4.5C69.288 4.5 77.2366 7.7924 83.0971 13.6529C88.9576 19.5134 92.25 27.462 92.25 35.75V60.75" stroke="#171717" stroke-width="8" stroke-linecap="round" stroke-linejoin="round"/>
</svg>
