<svg width="116" height="40" viewBox="0 0 116 40" fill="none" xmlns="http://www.w3.org/2000/svg">
<path d="M34.0632 5.58022C32.3085 3.8247 30.22 2.45621 27.8053 1.47221C25.3881 0.490735 22.708 0 19.7649 0C16.8218 0 14.1871 0.490735 11.7522 1.47221C9.31732 2.45368 7.23136 3.8247 5.49431 5.58022C3.75727 7.33574 2.40708 9.44286 1.44627 11.8965C0.480405 14.3527 0 17.0543 0 20.0013C0 22.9482 0.480405 25.6473 1.44374 28.1035C2.40708 30.5597 3.75474 32.6643 5.49178 34.4198C7.22883 36.1753 9.3148 37.5463 11.7497 38.5278C14.1846 39.5093 16.8546 40 19.7623 40C22.67 40 25.3881 39.5093 27.8028 38.5278C30.2175 37.5463 32.306 36.1778 34.0607 34.4198C35.8154 32.6617 37.1757 30.5571 38.1391 28.1035C39.1024 25.6473 39.5828 22.9482 39.5828 20.0013C39.5828 17.0543 39.1024 14.3553 38.1391 11.8991C37.1757 9.44286 35.818 7.33827 34.0607 5.58275L34.0632 5.58022ZM29.4766 24.5039C28.9659 25.8446 28.2579 26.9955 27.3527 27.9593C26.4475 28.923 25.3502 29.6693 24.0683 30.1979C22.7838 30.7266 21.3502 30.9922 19.7649 30.9922C18.1795 30.9922 16.7535 30.7291 15.4893 30.1979C14.225 29.6693 13.1302 28.923 12.2048 27.9593C11.2794 26.9955 10.5714 25.8446 10.0809 24.5039C9.5904 23.1632 9.34514 21.6632 9.34514 19.9987C9.34514 18.3343 9.5904 16.8368 10.0809 15.4936C10.5714 14.1529 11.2794 12.9994 12.2048 12.0382C13.1302 11.0744 14.225 10.3307 15.4893 9.79953C16.7535 9.27085 18.1795 9.00525 19.7649 9.00525C21.3502 9.00525 22.7838 9.27085 24.0683 9.79953C25.3502 10.3282 26.4475 11.0744 27.3527 12.0382C28.2579 13.002 28.9659 14.1529 29.4766 15.4936C29.9874 16.8342 30.2402 18.3368 30.2402 19.9987C30.2402 21.6607 29.9848 23.1632 29.4766 24.5039Z" fill="#171717"/>
<path d="M72.7687 5.97722C70.8799 4.333 68.5689 3.08846 65.8306 2.23852C63.0923 1.38859 59.9874 0.963623 56.5158 0.963623H42.0734V38.9804H56.5158C59.9899 38.9804 63.0949 38.5555 65.8306 37.7055C68.5664 36.8556 70.8799 35.6085 72.7687 33.9668C74.6549 32.3226 76.1012 30.3319 77.0999 27.9895C78.0987 25.6471 78.6018 22.9658 78.6018 19.9429C78.6018 16.9201 78.1012 14.297 77.0999 11.9546C76.0987 9.6122 74.6549 7.62144 72.7687 5.97722ZM68.4071 24.5898C67.8787 25.9507 67.1126 27.0915 66.1138 28.0173C65.1126 28.9431 63.8762 29.6413 62.4046 30.1143C60.933 30.5874 59.2516 30.8226 57.3654 30.8226H51.4767V9.12147H57.3654C61.2162 9.12147 64.1518 10.0473 66.172 11.8989C68.1922 13.7506 69.2011 16.4117 69.2011 19.8873C69.2011 21.663 68.9356 23.2288 68.4071 24.5898Z" fill="#171717"/>
<path d="M114.106 9.51875C113.236 7.55581 112.03 5.86353 110.483 4.44697C108.936 3.03042 107.095 1.93512 104.961 1.16107C102.827 0.387023 100.478 0 97.909 0C95.3401 0 92.9735 0.397142 90.9153 1.1889C88.8572 1.98318 87.0923 3.12401 85.6207 4.61645C84.1492 6.1089 83.024 7.90236 82.2503 9.99937C81.4766 12.0964 81.0898 14.4666 81.0898 17.11V38.9806H90.4905V31.3312H99.8357C102.101 31.3312 104.197 30.9543 106.121 30.1979C108.048 29.4416 109.689 28.3842 111.049 27.0259C112.41 25.6675 113.474 24.0511 114.25 22.1817C115.024 20.3124 115.411 18.2635 115.411 16.0349C115.411 13.6546 114.976 11.4842 114.109 9.51875H114.106ZM105.838 19.0932C105.421 19.9987 104.837 20.7829 104.083 21.4431C103.327 22.1033 102.402 22.6042 101.307 22.9457C100.212 23.2846 98.9861 23.4566 97.6258 23.4566L90.4905 23.4491V16.8848C90.4905 15.5644 90.6599 14.3831 91.0013 13.3435C91.3401 12.3063 91.8508 11.4362 92.531 10.738C93.2111 10.0398 94.0329 9.50104 94.9937 9.12414C95.957 8.74723 97.062 8.55752 98.306 8.55752C99.5499 8.55752 100.675 8.73711 101.676 9.09631C102.678 9.45551 103.525 9.95636 104.225 10.5989C104.923 11.2414 105.472 12.0154 105.869 12.921C106.266 13.8266 106.463 14.8485 106.463 15.9818C106.463 17.115 106.255 18.1901 105.841 19.0982L105.838 19.0932Z" fill="#171717"/>
</svg>
