<svg width="146" height="122" viewBox="0 0 146 122" fill="none" xmlns="http://www.w3.org/2000/svg">
<path d="M104.25 117.25V104.75C104.25 98.1196 101.616 91.7607 96.9277 87.0723C92.2393 82.3839 85.8804 79.75 79.25 79.75H29.25C22.6196 79.75 16.2607 82.3839 11.5723 87.0723C6.88392 91.7607 4.25 98.1196 4.25 104.75V117.25" stroke="#171717" stroke-width="8" stroke-linecap="round" stroke-linejoin="round"/>
<path d="M54.25 54.75C68.0571 54.75 79.25 43.5571 79.25 29.75C79.25 15.9429 68.0571 4.75 54.25 4.75C40.4429 4.75 29.25 15.9429 29.25 29.75C29.25 43.5571 40.4429 54.75 54.25 54.75Z" stroke="#171717" stroke-width="8" stroke-linecap="round" stroke-linejoin="round"/>
<path d="M141.75 117.25V104.75C141.746 99.2108 139.902 93.8298 136.509 89.452C133.115 85.0741 128.363 81.9473 123 80.5625" stroke="#171717" stroke-width="8" stroke-linecap="round" stroke-linejoin="round"/>
<path d="M98 5.5625C103.378 6.93938 108.144 10.0669 111.548 14.4519C114.952 18.837 116.799 24.2302 116.799 29.7812C116.799 35.3323 114.952 40.7255 111.548 45.1106C108.144 49.4956 103.378 52.6231 98 54" stroke="#171717" stroke-width="8" stroke-linecap="round" stroke-linejoin="round"/>
</svg>
