<svg width="109" height="134" viewBox="0 0 109 134" fill="none" xmlns="http://www.w3.org/2000/svg">
<path d="M66.6396 4.5H16.6396C13.3244 4.5 10.145 5.81696 7.80081 8.16116C5.45661 10.5054 4.13965 13.6848 4.13965 17V117C4.13965 120.315 5.45661 123.495 7.80081 125.839C10.145 128.183 13.3244 129.5 16.6396 129.5H91.6396C94.9548 129.5 98.1343 128.183 100.478 125.839C102.823 123.495 104.14 120.315 104.14 117V42L66.6396 4.5Z" stroke="#171717" stroke-width="8" stroke-linecap="round" stroke-linejoin="round"/>
<path d="M66.6396 4.5V42H104.14" stroke="#171717" stroke-width="8" stroke-linecap="round" stroke-linejoin="round"/>
<path d="M79.1396 73.25H29.1396" stroke="#171717" stroke-width="8" stroke-linecap="round" stroke-linejoin="round"/>
<path d="M79.1396 98.25H29.1396" stroke="#171717" stroke-width="8" stroke-linecap="round" stroke-linejoin="round"/>
<path d="M41.6396 48.25H35.3896H29.1396" stroke="#171717" stroke-width="8" stroke-linecap="round" stroke-linejoin="round"/>
</svg>
