<svg width="547" height="510" viewBox="0 0 547 510" fill="none" xmlns="http://www.w3.org/2000/svg">
<rect x="0.339844" width="546.66" height="510" rx="45.7143" fill="#56EBFF"/>
<path d="M102.76 195.74C94.7332 195.74 87.9198 193.64 82.3198 189.44C76.8132 185.24 72.6132 179.267 69.7198 171.52C66.8265 163.773 65.3798 154.58 65.3798 143.94C65.3798 133.207 66.8265 123.967 69.7198 116.22C72.6132 108.473 76.8132 102.5 82.3198 98.3C87.9198 94.0067 94.7332 91.86 102.76 91.86C111.813 91.86 119.42 94.8467 125.58 100.82C131.833 106.793 135.94 115.147 137.9 125.88L122.5 126.72C121.1 119.813 118.627 114.587 115.08 111.04C111.627 107.4 107.52 105.58 102.76 105.58C97.9065 105.58 93.8465 107.073 90.5798 110.06C87.3132 113.047 84.8398 117.387 83.1598 123.08C81.4798 128.773 80.6398 135.727 80.6398 143.94C80.6398 152.06 81.4798 158.967 83.1598 164.66C84.8398 170.26 87.3132 174.553 90.5798 177.54C93.8465 180.527 97.9065 182.02 102.76 182.02C107.893 182.02 112.28 180.06 115.92 176.14C119.56 172.22 121.987 166.48 123.2 158.92L138.46 159.62C136.78 171.007 132.813 179.873 126.56 186.22C120.307 192.567 112.373 195.74 102.76 195.74ZM187.545 195.74C180.358 195.74 174.058 194.293 168.645 191.4C163.325 188.507 159.078 184.493 155.905 179.36C152.732 174.133 150.865 168.067 150.305 161.16L165.425 160.18C166.078 164.94 167.385 168.953 169.345 172.22C171.305 175.487 173.872 177.96 177.045 179.64C180.218 181.227 183.905 182.02 188.105 182.02C192.212 182.02 195.665 181.507 198.465 180.48C201.265 179.36 203.412 177.773 204.905 175.72C206.398 173.667 207.145 171.193 207.145 168.3C207.145 165.313 206.445 162.7 205.045 160.46C203.645 158.22 201.125 156.167 197.485 154.3C193.845 152.433 188.525 150.52 181.525 148.56C174.712 146.693 169.158 144.593 164.865 142.26C160.572 139.927 157.445 137.033 155.485 133.58C153.525 130.127 152.545 125.833 152.545 120.7C152.545 115.007 153.852 110.013 156.465 105.72C159.172 101.333 162.998 97.9267 167.945 95.5C172.985 93.0733 179.005 91.86 186.005 91.86C192.912 91.86 198.792 93.2133 203.645 95.92C208.592 98.6267 212.465 102.407 215.265 107.26C218.158 112.02 219.932 117.62 220.585 124.06L205.465 124.9C204.998 121.073 203.925 117.713 202.245 114.82C200.658 111.927 198.465 109.687 195.665 108.1C192.865 106.42 189.505 105.58 185.585 105.58C180.078 105.58 175.692 106.933 172.425 109.64C169.252 112.253 167.665 115.707 167.665 120C167.665 122.893 168.318 125.273 169.625 127.14C170.932 129.007 173.218 130.687 176.485 132.18C179.752 133.673 184.325 135.213 190.205 136.8C198.138 138.947 204.438 141.42 209.105 144.22C213.772 147.02 217.132 150.38 219.185 154.3C221.238 158.22 222.265 162.887 222.265 168.3C222.265 173.713 220.818 178.52 217.925 182.72C215.032 186.827 210.972 190.047 205.745 192.38C200.612 194.62 194.545 195.74 187.545 195.74Z" fill="#171717"/>
<path d="M430.748 187.241L468.104 149.741L430.891 112.384H447.989L485.202 149.741L447.989 187.098L430.748 187.241ZM402.299 156.206V143.419H476.438V156.206H402.299Z" fill="#171717"/>
<path d="M72.5198 280.56C70.4665 280.56 68.6932 280.198 67.1998 279.475C65.7065 278.752 64.5282 277.748 63.6648 276.465C62.8248 275.158 62.3348 273.642 62.1948 271.915L66.8148 271.635C66.9548 272.708 67.2582 273.618 67.7248 274.365C68.2148 275.112 68.8565 275.683 69.6498 276.08C70.4665 276.453 71.4465 276.64 72.5898 276.64C73.5698 276.64 74.3982 276.523 75.0748 276.29C75.7748 276.033 76.2998 275.672 76.6498 275.205C77.0232 274.715 77.2098 274.12 77.2098 273.42C77.2098 272.79 77.0582 272.23 76.7548 271.74C76.4515 271.227 75.8682 270.772 75.0048 270.375C74.1415 269.955 72.8582 269.547 71.1548 269.15C69.1015 268.683 67.4565 268.158 66.2198 267.575C64.9832 266.968 64.0848 266.222 63.5248 265.335C62.9648 264.425 62.6848 263.293 62.6848 261.94C62.6848 260.493 63.0465 259.222 63.7698 258.125C64.4932 257.005 65.5198 256.142 66.8498 255.535C68.1798 254.905 69.7782 254.59 71.6448 254.59C73.6282 254.59 75.3082 254.952 76.6848 255.675C78.0615 256.375 79.1465 257.343 79.9398 258.58C80.7332 259.817 81.2232 261.24 81.4098 262.85L76.8248 263.06C76.7082 262.15 76.4282 261.357 75.9848 260.68C75.5648 260.003 74.9815 259.478 74.2348 259.105C73.5115 258.708 72.6248 258.51 71.5748 258.51C70.2682 258.51 69.2298 258.813 68.4598 259.42C67.7132 260.003 67.3398 260.785 67.3398 261.765C67.3398 262.442 67.4915 263.002 67.7948 263.445C68.1215 263.888 68.6932 264.273 69.5098 264.6C70.3265 264.903 71.4698 265.23 72.9398 265.58C75.1565 266.047 76.9182 266.642 78.2248 267.365C79.5315 268.088 80.4648 268.928 81.0248 269.885C81.5848 270.842 81.8648 271.938 81.8648 273.175C81.8648 274.692 81.4798 276.01 80.7098 277.13C79.9398 278.227 78.8548 279.078 77.4548 279.685C76.0548 280.268 74.4098 280.56 72.5198 280.56ZM92.1726 280C90.306 280 88.9293 279.568 88.0426 278.705C87.1793 277.842 86.7476 276.488 86.7476 274.645V256.935H91.2276V274.225C91.2276 275.088 91.4143 275.695 91.7876 276.045C92.1609 276.372 92.7443 276.535 93.5376 276.535H96.1626V280H92.1726ZM83.8076 264.775V261.31H96.1626V264.775H83.8076ZM104.071 280.42C102.111 280.42 100.536 279.977 99.3457 279.09C98.1557 278.18 97.5607 276.92 97.5607 275.31C97.5607 273.7 98.0624 272.44 99.0657 271.53C100.069 270.62 101.597 269.967 103.651 269.57L109.846 268.345C109.846 267.015 109.542 266.023 108.936 265.37C108.329 264.693 107.431 264.355 106.241 264.355C105.167 264.355 104.316 264.612 103.686 265.125C103.079 265.615 102.659 266.327 102.426 267.26L97.8757 267.05C98.249 265.067 99.159 263.55 100.606 262.5C102.052 261.427 103.931 260.89 106.241 260.89C108.901 260.89 110.907 261.567 112.261 262.92C113.637 264.25 114.326 266.163 114.326 268.66V275.45C114.326 275.94 114.407 276.278 114.571 276.465C114.757 276.652 115.026 276.745 115.376 276.745H115.971V280C115.831 280.047 115.597 280.082 115.271 280.105C114.967 280.128 114.652 280.14 114.326 280.14C113.556 280.14 112.867 280.023 112.261 279.79C111.654 279.533 111.187 279.102 110.861 278.495C110.534 277.865 110.371 277.013 110.371 275.94L110.756 276.22C110.569 277.037 110.161 277.772 109.531 278.425C108.924 279.055 108.154 279.545 107.221 279.895C106.287 280.245 105.237 280.42 104.071 280.42ZM104.981 277.165C105.984 277.165 106.847 276.967 107.571 276.57C108.294 276.173 108.854 275.625 109.251 274.925C109.647 274.225 109.846 273.397 109.846 272.44V271.39L105.016 272.37C104.012 272.58 103.289 272.895 102.846 273.315C102.426 273.712 102.216 274.237 102.216 274.89C102.216 275.613 102.449 276.173 102.916 276.57C103.406 276.967 104.094 277.165 104.981 277.165ZM118.18 280V261.31H122.24L122.415 266.56L121.89 266.35C122.077 265.043 122.462 263.993 123.045 263.2C123.628 262.407 124.34 261.823 125.18 261.45C126.02 261.077 126.942 260.89 127.945 260.89C129.322 260.89 130.477 261.193 131.41 261.8C132.367 262.407 133.09 263.247 133.58 264.32C134.07 265.37 134.315 266.595 134.315 267.995V280H129.835V269.43C129.835 268.38 129.73 267.493 129.52 266.77C129.31 266.047 128.96 265.498 128.47 265.125C128.003 264.728 127.373 264.53 126.58 264.53C125.39 264.53 124.433 264.95 123.71 265.79C123.01 266.63 122.66 267.843 122.66 269.43V280H118.18ZM144.706 280.42C143.12 280.42 141.743 280.023 140.576 279.23C139.433 278.437 138.546 277.305 137.916 275.835C137.286 274.365 136.971 272.638 136.971 270.655C136.971 268.672 137.286 266.945 137.916 265.475C138.546 264.005 139.445 262.873 140.611 262.08C141.778 261.287 143.143 260.89 144.706 260.89C146.013 260.89 147.156 261.158 148.136 261.695C149.14 262.232 149.898 262.99 150.411 263.97V255.15H154.891V280H150.621L150.516 277.235C150.003 278.238 149.233 279.02 148.206 279.58C147.18 280.14 146.013 280.42 144.706 280.42ZM146.071 276.78C147.005 276.78 147.786 276.547 148.416 276.08C149.07 275.613 149.56 274.925 149.886 274.015C150.236 273.082 150.411 271.962 150.411 270.655C150.411 269.325 150.236 268.205 149.886 267.295C149.56 266.385 149.07 265.697 148.416 265.23C147.786 264.763 147.005 264.53 146.071 264.53C144.718 264.53 143.633 265.078 142.816 266.175C142.023 267.248 141.626 268.742 141.626 270.655C141.626 272.522 142.023 274.015 142.816 275.135C143.633 276.232 144.718 276.78 146.071 276.78ZM164.178 280.42C162.218 280.42 160.643 279.977 159.453 279.09C158.263 278.18 157.668 276.92 157.668 275.31C157.668 273.7 158.169 272.44 159.173 271.53C160.176 270.62 161.704 269.967 163.758 269.57L169.953 268.345C169.953 267.015 169.649 266.023 169.043 265.37C168.436 264.693 167.538 264.355 166.348 264.355C165.274 264.355 164.423 264.612 163.793 265.125C163.186 265.615 162.766 266.327 162.533 267.26L157.983 267.05C158.356 265.067 159.266 263.55 160.713 262.5C162.159 261.427 164.038 260.89 166.348 260.89C169.008 260.89 171.014 261.567 172.368 262.92C173.744 264.25 174.433 266.163 174.433 268.66V275.45C174.433 275.94 174.514 276.278 174.678 276.465C174.864 276.652 175.133 276.745 175.483 276.745H176.078V280C175.938 280.047 175.704 280.082 175.378 280.105C175.074 280.128 174.759 280.14 174.433 280.14C173.663 280.14 172.974 280.023 172.368 279.79C171.761 279.533 171.294 279.102 170.968 278.495C170.641 277.865 170.478 277.013 170.478 275.94L170.863 276.22C170.676 277.037 170.268 277.772 169.638 278.425C169.031 279.055 168.261 279.545 167.328 279.895C166.394 280.245 165.344 280.42 164.178 280.42ZM165.088 277.165C166.091 277.165 166.954 276.967 167.678 276.57C168.401 276.173 168.961 275.625 169.358 274.925C169.754 274.225 169.953 273.397 169.953 272.44V271.39L165.123 272.37C164.119 272.58 163.396 272.895 162.953 273.315C162.533 273.712 162.323 274.237 162.323 274.89C162.323 275.613 162.556 276.173 163.023 276.57C163.513 276.967 164.201 277.165 165.088 277.165ZM178.287 280V261.31H182.487L182.662 266.49L182.277 266.42C182.557 264.623 183.082 263.328 183.852 262.535C184.645 261.718 185.719 261.31 187.072 261.31H188.787V265.16H187.037C186.08 265.16 185.287 265.3 184.657 265.58C184.027 265.86 183.549 266.303 183.222 266.91C182.919 267.493 182.767 268.263 182.767 269.22V280H178.287ZM197.157 280.42C195.57 280.42 194.194 280.023 193.027 279.23C191.884 278.437 190.997 277.305 190.367 275.835C189.737 274.365 189.422 272.638 189.422 270.655C189.422 268.672 189.737 266.945 190.367 265.475C190.997 264.005 191.895 262.873 193.062 262.08C194.229 261.287 195.594 260.89 197.157 260.89C198.464 260.89 199.607 261.158 200.587 261.695C201.59 262.232 202.349 262.99 202.862 263.97V255.15H207.342V280H203.072L202.967 277.235C202.454 278.238 201.684 279.02 200.657 279.58C199.63 280.14 198.464 280.42 197.157 280.42ZM198.522 276.78C199.455 276.78 200.237 276.547 200.867 276.08C201.52 275.613 202.01 274.925 202.337 274.015C202.687 273.082 202.862 271.962 202.862 270.655C202.862 269.325 202.687 268.205 202.337 267.295C202.01 266.385 201.52 265.697 200.867 265.23C200.237 264.763 199.455 264.53 198.522 264.53C197.169 264.53 196.084 265.078 195.267 266.175C194.474 267.248 194.077 268.742 194.077 270.655C194.077 272.522 194.474 274.015 195.267 275.135C196.084 276.232 197.169 276.78 198.522 276.78ZM210.998 280V261.31H215.478V280H210.998ZM210.928 258.825V254.835H215.583V258.825H210.928ZM219.208 280V276.29L230.023 264.775H219.628V261.31H235.308V265.02L224.388 276.535H235.553V280H219.208ZM246.292 280.42C244.425 280.42 242.804 280.023 241.427 279.23C240.05 278.413 238.989 277.27 238.242 275.8C237.495 274.33 237.122 272.615 237.122 270.655C237.122 268.695 237.495 266.992 238.242 265.545C238.989 264.075 240.039 262.932 241.392 262.115C242.769 261.298 244.367 260.89 246.187 260.89C247.96 260.89 249.512 261.287 250.842 262.08C252.195 262.873 253.234 264.017 253.957 265.51C254.68 267.003 255.042 268.8 255.042 270.9V271.915H241.777C241.87 273.548 242.314 274.785 243.107 275.625C243.924 276.442 244.997 276.85 246.327 276.85C247.33 276.85 248.159 276.628 248.812 276.185C249.489 275.718 249.955 275.077 250.212 274.26L254.797 274.54C254.284 276.36 253.269 277.795 251.752 278.845C250.259 279.895 248.439 280.42 246.292 280.42ZM241.777 268.905H250.422C250.329 267.388 249.897 266.268 249.127 265.545C248.357 264.798 247.377 264.425 246.187 264.425C244.997 264.425 244.005 264.81 243.212 265.58C242.442 266.35 241.964 267.458 241.777 268.905ZM264.494 280.42C262.907 280.42 261.53 280.023 260.364 279.23C259.22 278.437 258.334 277.305 257.704 275.835C257.074 274.365 256.759 272.638 256.759 270.655C256.759 268.672 257.074 266.945 257.704 265.475C258.334 264.005 259.232 262.873 260.399 262.08C261.565 261.287 262.93 260.89 264.494 260.89C265.8 260.89 266.944 261.158 267.924 261.695C268.927 262.232 269.685 262.99 270.199 263.97V255.15H274.679V280H270.409L270.304 277.235C269.79 278.238 269.02 279.02 267.994 279.58C266.967 280.14 265.8 280.42 264.494 280.42ZM265.859 276.78C266.792 276.78 267.574 276.547 268.204 276.08C268.857 275.613 269.347 274.925 269.674 274.015C270.024 273.082 270.199 271.962 270.199 270.655C270.199 269.325 270.024 268.205 269.674 267.295C269.347 266.385 268.857 265.697 268.204 265.23C267.574 264.763 266.792 264.53 265.859 264.53C264.505 264.53 263.42 265.078 262.604 266.175C261.81 267.248 261.414 268.742 261.414 270.655C261.414 272.522 261.81 274.015 262.604 275.135C263.42 276.232 264.505 276.78 265.859 276.78ZM286.804 280V255.15H303.534V259.105H291.354V265.58H303.114V269.5H291.354V276.045H303.814V280H286.804ZM307.287 280V261.31H311.347L311.487 265.895L311.067 265.685C311.277 264.682 311.638 263.83 312.152 263.13C312.688 262.407 313.33 261.858 314.077 261.485C314.847 261.088 315.687 260.89 316.597 260.89C318.183 260.89 319.467 261.345 320.447 262.255C321.427 263.142 322.045 264.367 322.302 265.93H321.707C321.917 264.833 322.278 263.923 322.792 263.2C323.305 262.453 323.947 261.882 324.717 261.485C325.51 261.088 326.397 260.89 327.377 260.89C328.66 260.89 329.768 261.17 330.702 261.73C331.635 262.267 332.347 263.06 332.837 264.11C333.35 265.16 333.607 266.455 333.607 267.995V280H329.127V269.15C329.127 267.61 328.858 266.455 328.322 265.685C327.808 264.915 327.015 264.53 325.942 264.53C325.218 264.53 324.6 264.717 324.087 265.09C323.573 265.463 323.177 266.012 322.897 266.735C322.64 267.435 322.512 268.287 322.512 269.29V280H318.347V269.29C318.347 267.75 318.113 266.572 317.647 265.755C317.18 264.938 316.375 264.53 315.232 264.53C314.508 264.53 313.89 264.717 313.377 265.09C312.887 265.463 312.49 266.012 312.187 266.735C311.907 267.435 311.767 268.287 311.767 269.29V280H307.287ZM347.53 280.42C346.223 280.42 345.08 280.14 344.1 279.58C343.143 279.02 342.397 278.238 341.86 277.235L341.755 280H337.485V255.15H341.965V263.97C342.478 263.107 343.213 262.383 344.17 261.8C345.127 261.193 346.247 260.89 347.53 260.89C349.14 260.89 350.528 261.298 351.695 262.115C352.885 262.908 353.795 264.04 354.425 265.51C355.078 266.957 355.405 268.672 355.405 270.655C355.405 272.638 355.078 274.365 354.425 275.835C353.795 277.282 352.885 278.413 351.695 279.23C350.528 280.023 349.14 280.42 347.53 280.42ZM346.515 276.78C347.798 276.78 348.825 276.243 349.595 275.17C350.365 274.073 350.75 272.568 350.75 270.655C350.75 268.718 350.365 267.213 349.595 266.14C348.848 265.067 347.833 264.53 346.55 264.53C345.593 264.53 344.765 264.775 344.065 265.265C343.388 265.732 342.863 266.42 342.49 267.33C342.14 268.24 341.965 269.348 341.965 270.655C341.965 271.915 342.14 273.012 342.49 273.945C342.863 274.855 343.388 275.555 344.065 276.045C344.742 276.535 345.558 276.78 346.515 276.78ZM366.267 280.42C364.4 280.42 362.778 280.023 361.402 279.23C360.025 278.413 358.963 277.27 358.217 275.8C357.47 274.33 357.097 272.615 357.097 270.655C357.097 268.695 357.47 266.992 358.217 265.545C358.963 264.075 360.013 262.932 361.367 262.115C362.743 261.298 364.342 260.89 366.162 260.89C367.935 260.89 369.487 261.287 370.817 262.08C372.17 262.873 373.208 264.017 373.932 265.51C374.655 267.003 375.017 268.8 375.017 270.9V271.915H361.752C361.845 273.548 362.288 274.785 363.082 275.625C363.898 276.442 364.972 276.85 366.302 276.85C367.305 276.85 368.133 276.628 368.787 276.185C369.463 275.718 369.93 275.077 370.187 274.26L374.772 274.54C374.258 276.36 373.243 277.795 371.727 278.845C370.233 279.895 368.413 280.42 366.267 280.42ZM361.752 268.905H370.397C370.303 267.388 369.872 266.268 369.102 265.545C368.332 264.798 367.352 264.425 366.162 264.425C364.972 264.425 363.98 264.81 363.187 265.58C362.417 266.35 361.938 267.458 361.752 268.905ZM384.469 280.42C382.882 280.42 381.505 280.023 380.339 279.23C379.195 278.437 378.309 277.305 377.679 275.835C377.049 274.365 376.734 272.638 376.734 270.655C376.734 268.672 377.049 266.945 377.679 265.475C378.309 264.005 379.207 262.873 380.374 262.08C381.54 261.287 382.905 260.89 384.469 260.89C385.775 260.89 386.919 261.158 387.899 261.695C388.902 262.232 389.66 262.99 390.174 263.97V255.15H394.654V280H390.384L390.279 277.235C389.765 278.238 388.995 279.02 387.969 279.58C386.942 280.14 385.775 280.42 384.469 280.42ZM385.834 276.78C386.767 276.78 387.549 276.547 388.179 276.08C388.832 275.613 389.322 274.925 389.649 274.015C389.999 273.082 390.174 271.962 390.174 270.655C390.174 269.325 389.999 268.205 389.649 267.295C389.322 266.385 388.832 265.697 388.179 265.23C387.549 264.763 386.767 264.53 385.834 264.53C384.48 264.53 383.395 265.078 382.579 266.175C381.785 267.248 381.389 268.742 381.389 270.655C381.389 272.522 381.785 274.015 382.579 275.135C383.395 276.232 384.48 276.78 385.834 276.78ZM405.165 280.42C403.578 280.42 402.202 280.023 401.035 279.23C399.892 278.437 399.005 277.305 398.375 275.835C397.745 274.365 397.43 272.638 397.43 270.655C397.43 268.672 397.745 266.945 398.375 265.475C399.005 264.005 399.903 262.873 401.07 262.08C402.237 261.287 403.602 260.89 405.165 260.89C406.472 260.89 407.615 261.158 408.595 261.695C409.598 262.232 410.357 262.99 410.87 263.97V255.15H415.35V280H411.08L410.975 277.235C410.462 278.238 409.692 279.02 408.665 279.58C407.638 280.14 406.472 280.42 405.165 280.42ZM406.53 276.78C407.463 276.78 408.245 276.547 408.875 276.08C409.528 275.613 410.018 274.925 410.345 274.015C410.695 273.082 410.87 271.962 410.87 270.655C410.87 269.325 410.695 268.205 410.345 267.295C410.018 266.385 409.528 265.697 408.875 265.23C408.245 264.763 407.463 264.53 406.53 264.53C405.177 264.53 404.092 265.078 403.275 266.175C402.482 267.248 402.085 268.742 402.085 270.655C402.085 272.522 402.482 274.015 403.275 275.135C404.092 276.232 405.177 276.78 406.53 276.78ZM427.297 280.42C425.43 280.42 423.808 280.023 422.432 279.23C421.055 278.413 419.993 277.27 419.247 275.8C418.5 274.33 418.127 272.615 418.127 270.655C418.127 268.695 418.5 266.992 419.247 265.545C419.993 264.075 421.043 262.932 422.397 262.115C423.773 261.298 425.372 260.89 427.192 260.89C428.965 260.89 430.517 261.287 431.847 262.08C433.2 262.873 434.238 264.017 434.962 265.51C435.685 267.003 436.047 268.8 436.047 270.9V271.915H422.782C422.875 273.548 423.318 274.785 424.112 275.625C424.928 276.442 426.002 276.85 427.332 276.85C428.335 276.85 429.163 276.628 429.817 276.185C430.493 275.718 430.96 275.077 431.217 274.26L435.802 274.54C435.288 276.36 434.273 277.795 432.757 278.845C431.263 279.895 429.443 280.42 427.297 280.42ZM422.782 268.905H431.427C431.333 267.388 430.902 266.268 430.132 265.545C429.362 264.798 428.382 264.425 427.192 264.425C426.002 264.425 425.01 264.81 424.217 265.58C423.447 266.35 422.968 267.458 422.782 268.905ZM445.498 280.42C443.912 280.42 442.535 280.023 441.368 279.23C440.225 278.437 439.338 277.305 438.708 275.835C438.078 274.365 437.763 272.638 437.763 270.655C437.763 268.672 438.078 266.945 438.708 265.475C439.338 264.005 440.237 262.873 441.403 262.08C442.57 261.287 443.935 260.89 445.498 260.89C446.805 260.89 447.948 261.158 448.928 261.695C449.932 262.232 450.69 262.99 451.203 263.97V255.15H455.683V280H451.413L451.308 277.235C450.795 278.238 450.025 279.02 448.998 279.58C447.972 280.14 446.805 280.42 445.498 280.42ZM446.863 276.78C447.797 276.78 448.578 276.547 449.208 276.08C449.862 275.613 450.352 274.925 450.678 274.015C451.028 273.082 451.203 271.962 451.203 270.655C451.203 269.325 451.028 268.205 450.678 267.295C450.352 266.385 449.862 265.697 449.208 265.23C448.578 264.763 447.797 264.53 446.863 264.53C445.51 264.53 444.425 265.078 443.608 266.175C442.815 267.248 442.418 268.742 442.418 270.655C442.418 272.522 442.815 274.015 443.608 275.135C444.425 276.232 445.51 276.78 446.863 276.78ZM73.3598 322.56C71.0965 322.56 69.1015 322.047 67.3748 321.02C65.6482 319.97 64.2948 318.488 63.3148 316.575C62.3348 314.638 61.8448 312.317 61.8448 309.61C61.8448 306.95 62.3232 304.652 63.2798 302.715C64.2365 300.755 65.5782 299.25 67.3048 298.2C69.0315 297.127 71.0615 296.59 73.3948 296.59C76.5682 296.59 79.0298 297.383 80.7798 298.97C82.5298 300.533 83.6732 302.727 84.2098 305.55L79.4498 305.795C79.1465 304.162 78.4932 302.878 77.4898 301.945C76.4865 301.012 75.1215 300.545 73.3948 300.545C71.9948 300.545 70.7815 300.918 69.7548 301.665C68.7282 302.412 67.9348 303.462 67.3748 304.815C66.8148 306.168 66.5348 307.767 66.5348 309.61C66.5348 311.477 66.8148 313.087 67.3748 314.44C67.9582 315.77 68.7632 316.797 69.7898 317.52C70.8165 318.243 72.0065 318.605 73.3598 318.605C75.2032 318.605 76.6265 318.103 77.6298 317.1C78.6565 316.073 79.3098 314.673 79.5898 312.9L84.3498 313.145C84.0232 315.082 83.3932 316.762 82.4598 318.185C81.5265 319.585 80.2898 320.67 78.7498 321.44C77.2332 322.187 75.4365 322.56 73.3598 322.56ZM95.2294 322.42C93.386 322.42 91.7644 322.023 90.3644 321.23C88.9877 320.413 87.9144 319.27 87.1444 317.8C86.3977 316.33 86.0244 314.615 86.0244 312.655C86.0244 310.672 86.3977 308.957 87.1444 307.51C87.9144 306.04 88.9877 304.908 90.3644 304.115C91.7644 303.298 93.386 302.89 95.2294 302.89C97.0727 302.89 98.6827 303.298 100.059 304.115C101.436 304.908 102.498 306.04 103.244 307.51C104.014 308.957 104.399 310.672 104.399 312.655C104.399 314.615 104.014 316.33 103.244 317.8C102.498 319.27 101.436 320.413 100.059 321.23C98.6827 322.023 97.0727 322.42 95.2294 322.42ZM95.2294 318.78C96.676 318.78 97.7844 318.243 98.5544 317.17C99.3477 316.097 99.7444 314.592 99.7444 312.655C99.7444 310.742 99.3477 309.248 98.5544 308.175C97.7844 307.078 96.676 306.53 95.2294 306.53C93.7827 306.53 92.6627 307.078 91.8694 308.175C91.076 309.248 90.6794 310.742 90.6794 312.655C90.6794 314.592 91.076 316.097 91.8694 317.17C92.6627 318.243 93.7827 318.78 95.2294 318.78ZM107.156 322V303.31H111.216L111.391 308.56L110.866 308.35C111.053 307.043 111.438 305.993 112.021 305.2C112.605 304.407 113.316 303.823 114.156 303.45C114.996 303.077 115.918 302.89 116.921 302.89C118.298 302.89 119.453 303.193 120.386 303.8C121.343 304.407 122.066 305.247 122.556 306.32C123.046 307.37 123.291 308.595 123.291 309.995V322H118.811V311.43C118.811 310.38 118.706 309.493 118.496 308.77C118.286 308.047 117.936 307.498 117.446 307.125C116.98 306.728 116.35 306.53 115.556 306.53C114.366 306.53 113.41 306.95 112.686 307.79C111.986 308.63 111.636 309.843 111.636 311.43V322H107.156ZM133.668 322C131.801 322 130.425 321.568 129.538 320.705C128.675 319.842 128.243 318.488 128.243 316.645V298.935H132.723V316.225C132.723 317.088 132.91 317.695 133.283 318.045C133.656 318.372 134.24 318.535 135.033 318.535H137.658V322H133.668ZM125.303 306.775V303.31H137.658V306.775H125.303ZM140.586 322V303.31H144.786L144.961 308.49L144.576 308.42C144.856 306.623 145.381 305.328 146.151 304.535C146.944 303.718 148.017 303.31 149.371 303.31H151.086V307.16H149.336C148.379 307.16 147.586 307.3 146.956 307.58C146.326 307.86 145.847 308.303 145.521 308.91C145.217 309.493 145.066 310.263 145.066 311.22V322H140.586ZM160.925 322.42C159.082 322.42 157.46 322.023 156.06 321.23C154.684 320.413 153.61 319.27 152.84 317.8C152.094 316.33 151.72 314.615 151.72 312.655C151.72 310.672 152.094 308.957 152.84 307.51C153.61 306.04 154.684 304.908 156.06 304.115C157.46 303.298 159.082 302.89 160.925 302.89C162.769 302.89 164.379 303.298 165.755 304.115C167.132 304.908 168.194 306.04 168.94 307.51C169.71 308.957 170.095 310.672 170.095 312.655C170.095 314.615 169.71 316.33 168.94 317.8C168.194 319.27 167.132 320.413 165.755 321.23C164.379 322.023 162.769 322.42 160.925 322.42ZM160.925 318.78C162.372 318.78 163.48 318.243 164.25 317.17C165.044 316.097 165.44 314.592 165.44 312.655C165.44 310.742 165.044 309.248 164.25 308.175C163.48 307.078 162.372 306.53 160.925 306.53C159.479 306.53 158.359 307.078 157.565 308.175C156.772 309.248 156.375 310.742 156.375 312.655C156.375 314.592 156.772 316.097 157.565 317.17C158.359 318.243 159.479 318.78 160.925 318.78ZM177.503 322C176.15 322 175.065 321.65 174.248 320.95C173.432 320.25 173.023 319.13 173.023 317.59V297.15H177.503V317.135C177.503 317.602 177.62 317.952 177.853 318.185C178.11 318.418 178.46 318.535 178.903 318.535H180.268V322H177.503ZM186.852 322C185.499 322 184.414 321.65 183.597 320.95C182.781 320.25 182.372 319.13 182.372 317.59V297.15H186.852V317.135C186.852 317.602 186.969 317.952 187.202 318.185C187.459 318.418 187.809 318.535 188.252 318.535H189.617V322H186.852ZM199.874 322.42C198.008 322.42 196.386 322.023 195.009 321.23C193.633 320.413 192.571 319.27 191.824 317.8C191.078 316.33 190.704 314.615 190.704 312.655C190.704 310.695 191.078 308.992 191.824 307.545C192.571 306.075 193.621 304.932 194.974 304.115C196.351 303.298 197.949 302.89 199.769 302.89C201.543 302.89 203.094 303.287 204.424 304.08C205.778 304.873 206.816 306.017 207.539 307.51C208.263 309.003 208.624 310.8 208.624 312.9V313.915H195.359C195.453 315.548 195.896 316.785 196.689 317.625C197.506 318.442 198.579 318.85 199.909 318.85C200.913 318.85 201.741 318.628 202.394 318.185C203.071 317.718 203.538 317.077 203.794 316.26L208.379 316.54C207.866 318.36 206.851 319.795 205.334 320.845C203.841 321.895 202.021 322.42 199.874 322.42ZM195.359 310.905H204.004C203.911 309.388 203.479 308.268 202.709 307.545C201.939 306.798 200.959 306.425 199.769 306.425C198.579 306.425 197.588 306.81 196.794 307.58C196.024 308.35 195.546 309.458 195.359 310.905ZM211.426 322V303.31H215.626L215.801 308.49L215.416 308.42C215.696 306.623 216.221 305.328 216.991 304.535C217.785 303.718 218.858 303.31 220.211 303.31H221.926V307.16H220.176C219.22 307.16 218.426 307.3 217.796 307.58C217.166 307.86 216.688 308.303 216.361 308.91C216.058 309.493 215.906 310.263 215.906 311.22V322H211.426ZM242.349 322.56C240.296 322.56 238.522 322.198 237.029 321.475C235.536 320.752 234.357 319.748 233.494 318.465C232.654 317.158 232.164 315.642 232.024 313.915L236.644 313.635C236.784 314.708 237.087 315.618 237.554 316.365C238.044 317.112 238.686 317.683 239.479 318.08C240.296 318.453 241.276 318.64 242.419 318.64C243.399 318.64 244.227 318.523 244.904 318.29C245.604 318.033 246.129 317.672 246.479 317.205C246.852 316.715 247.039 316.12 247.039 315.42C247.039 314.79 246.887 314.23 246.584 313.74C246.281 313.227 245.697 312.772 244.834 312.375C243.971 311.955 242.687 311.547 240.984 311.15C238.931 310.683 237.286 310.158 236.049 309.575C234.812 308.968 233.914 308.222 233.354 307.335C232.794 306.425 232.514 305.293 232.514 303.94C232.514 302.493 232.876 301.222 233.599 300.125C234.322 299.005 235.349 298.142 236.679 297.535C238.009 296.905 239.607 296.59 241.474 296.59C243.457 296.59 245.137 296.952 246.514 297.675C247.891 298.375 248.976 299.343 249.769 300.58C250.562 301.817 251.052 303.24 251.239 304.85L246.654 305.06C246.537 304.15 246.257 303.357 245.814 302.68C245.394 302.003 244.811 301.478 244.064 301.105C243.341 300.708 242.454 300.51 241.404 300.51C240.097 300.51 239.059 300.813 238.289 301.42C237.542 302.003 237.169 302.785 237.169 303.765C237.169 304.442 237.321 305.002 237.624 305.445C237.951 305.888 238.522 306.273 239.339 306.6C240.156 306.903 241.299 307.23 242.769 307.58C244.986 308.047 246.747 308.642 248.054 309.365C249.361 310.088 250.294 310.928 250.854 311.885C251.414 312.842 251.694 313.938 251.694 315.175C251.694 316.692 251.309 318.01 250.539 319.13C249.769 320.227 248.684 321.078 247.284 321.685C245.884 322.268 244.239 322.56 242.349 322.56ZM263.691 322.42C261.824 322.42 260.202 322.023 258.826 321.23C257.449 320.413 256.387 319.27 255.641 317.8C254.894 316.33 254.521 314.615 254.521 312.655C254.521 310.695 254.894 308.992 255.641 307.545C256.387 306.075 257.437 304.932 258.791 304.115C260.167 303.298 261.766 302.89 263.586 302.89C265.359 302.89 266.911 303.287 268.241 304.08C269.594 304.873 270.632 306.017 271.356 307.51C272.079 309.003 272.441 310.8 272.441 312.9V313.915H259.176C259.269 315.548 259.712 316.785 260.506 317.625C261.322 318.442 262.396 318.85 263.726 318.85C264.729 318.85 265.557 318.628 266.211 318.185C266.887 317.718 267.354 317.077 267.611 316.26L272.196 316.54C271.682 318.36 270.667 319.795 269.151 320.845C267.657 321.895 265.837 322.42 263.691 322.42ZM259.176 310.905H267.821C267.727 309.388 267.296 308.268 266.526 307.545C265.756 306.798 264.776 306.425 263.586 306.425C262.396 306.425 261.404 306.81 260.611 307.58C259.841 308.35 259.362 309.458 259.176 310.905ZM275.243 322V303.31H279.443L279.618 308.49L279.233 308.42C279.513 306.623 280.038 305.328 280.808 304.535C281.601 303.718 282.674 303.31 284.028 303.31H285.743V307.16H283.993C283.036 307.16 282.243 307.3 281.613 307.58C280.983 307.86 280.504 308.303 280.178 308.91C279.874 309.493 279.723 310.263 279.723 311.22V322H275.243ZM293.154 322L286.329 303.31H291.054L295.814 317.485L300.574 303.31H305.299L298.474 322H293.154ZM307.441 322V303.31H311.921V322H307.441ZM307.371 300.825V296.835H312.026V300.825H307.371ZM323.919 322.42C322.052 322.42 320.43 322.023 319.054 321.23C317.677 320.413 316.604 319.27 315.834 317.8C315.087 316.33 314.714 314.615 314.714 312.655C314.714 310.695 315.087 308.992 315.834 307.545C316.604 306.075 317.677 304.932 319.054 304.115C320.43 303.298 322.052 302.89 323.919 302.89C325.505 302.89 326.917 303.17 328.154 303.73C329.39 304.29 330.394 305.095 331.164 306.145C331.957 307.172 332.447 308.432 332.634 309.925L328.014 310.17C327.827 308.98 327.36 308.082 326.614 307.475C325.89 306.845 324.992 306.53 323.919 306.53C322.472 306.53 321.352 307.078 320.559 308.175C319.765 309.248 319.369 310.742 319.369 312.655C319.369 314.592 319.765 316.097 320.559 317.17C321.352 318.243 322.472 318.78 323.919 318.78C325.015 318.78 325.925 318.465 326.649 317.835C327.395 317.205 327.85 316.225 328.014 314.895L332.634 315.105C332.447 316.598 331.969 317.893 331.199 318.99C330.429 320.087 329.425 320.938 328.189 321.545C326.952 322.128 325.529 322.42 323.919 322.42ZM343.145 322.42C341.278 322.42 339.656 322.023 338.28 321.23C336.903 320.413 335.841 319.27 335.095 317.8C334.348 316.33 333.975 314.615 333.975 312.655C333.975 310.695 334.348 308.992 335.095 307.545C335.841 306.075 336.891 304.932 338.245 304.115C339.621 303.298 341.22 302.89 343.04 302.89C344.813 302.89 346.365 303.287 347.695 304.08C349.048 304.873 350.086 306.017 350.81 307.51C351.533 309.003 351.895 310.8 351.895 312.9V313.915H338.63C338.723 315.548 339.166 316.785 339.96 317.625C340.776 318.442 341.85 318.85 343.18 318.85C344.183 318.85 345.011 318.628 345.665 318.185C346.341 317.718 346.808 317.077 347.065 316.26L351.65 316.54C351.136 318.36 350.121 319.795 348.605 320.845C347.111 321.895 345.291 322.42 343.145 322.42ZM338.63 310.905H347.275C347.181 309.388 346.75 308.268 345.98 307.545C345.21 306.798 344.23 306.425 343.04 306.425C341.85 306.425 340.858 306.81 340.065 307.58C339.295 308.35 338.816 309.458 338.63 310.905ZM362.292 322.42C360.448 322.42 358.897 322.152 357.637 321.615C356.4 321.078 355.443 320.332 354.767 319.375C354.09 318.418 353.705 317.333 353.612 316.12L358.197 315.91C358.36 316.89 358.768 317.648 359.422 318.185C360.075 318.722 361.043 318.99 362.327 318.99C363.377 318.99 364.193 318.827 364.777 318.5C365.383 318.15 365.687 317.613 365.687 316.89C365.687 316.47 365.582 316.12 365.372 315.84C365.162 315.56 364.765 315.315 364.182 315.105C363.598 314.895 362.735 314.685 361.592 314.475C359.678 314.148 358.173 313.752 357.077 313.285C355.98 312.795 355.198 312.188 354.732 311.465C354.288 310.742 354.067 309.843 354.067 308.77C354.067 307.02 354.732 305.608 356.062 304.535C357.415 303.438 359.387 302.89 361.977 302.89C363.657 302.89 365.068 303.17 366.212 303.73C367.355 304.267 368.242 305.013 368.872 305.97C369.525 306.903 369.933 307.977 370.097 309.19L365.582 309.4C365.465 308.77 365.255 308.222 364.952 307.755C364.648 307.288 364.24 306.938 363.727 306.705C363.213 306.448 362.607 306.32 361.907 306.32C360.857 306.32 360.063 306.53 359.527 306.95C358.99 307.37 358.722 307.93 358.722 308.63C358.722 309.12 358.838 309.528 359.072 309.855C359.328 310.182 359.737 310.45 360.297 310.66C360.857 310.847 361.603 311.022 362.537 311.185C364.497 311.488 366.037 311.885 367.157 312.375C368.3 312.842 369.105 313.448 369.572 314.195C370.062 314.918 370.307 315.793 370.307 316.82C370.307 318.01 369.968 319.025 369.292 319.865C368.638 320.705 367.705 321.347 366.492 321.79C365.302 322.21 363.902 322.42 362.292 322.42ZM60.8398 364L67.2398 346.25H70.6648L77.0648 364H74.1898L72.5648 359.375H65.3148L63.7148 364H60.8398ZM66.1648 356.925H71.7398L68.9398 348.825L66.1648 356.925ZM89.4053 364.3C88.0719 364.3 87.0053 363.858 86.2053 362.975C85.4219 362.075 85.0303 360.833 85.0303 359.25V350.7H87.6803V358.575C87.6803 359.775 87.8886 360.658 88.3053 361.225C88.7219 361.792 89.3553 362.075 90.2053 362.075C91.1719 362.075 91.9219 361.767 92.4553 361.15C93.0053 360.517 93.2803 359.633 93.2803 358.5V350.7H95.9303V364H93.4553L93.4053 360.525L93.7803 360.675C93.5469 361.842 93.0553 362.742 92.3053 363.375C91.5553 363.992 90.5886 364.3 89.4053 364.3ZM99.4287 364V350.7H101.854L101.954 354.25L101.629 354.075C101.779 353.208 102.062 352.508 102.479 351.975C102.895 351.442 103.404 351.05 104.004 350.8C104.604 350.533 105.254 350.4 105.954 350.4C106.954 350.4 107.779 350.625 108.429 351.075C109.095 351.508 109.595 352.108 109.929 352.875C110.279 353.625 110.454 354.483 110.454 355.45V364H107.804V356.25C107.804 355.467 107.72 354.808 107.554 354.275C107.387 353.742 107.112 353.333 106.729 353.05C106.345 352.767 105.845 352.625 105.229 352.625C104.295 352.625 103.537 352.933 102.954 353.55C102.37 354.167 102.079 355.067 102.079 356.25V364H99.4287ZM113.705 364V350.7H116.355V364H113.705ZM113.655 348.775V346.125H116.405V348.775H113.655ZM120.396 364V349.85C120.396 348.75 120.704 347.875 121.321 347.225C121.938 346.575 122.904 346.25 124.221 346.25H126.571V348.425H124.571C124.054 348.425 123.671 348.567 123.421 348.85C123.171 349.117 123.046 349.5 123.046 350V364H120.396ZM118.546 353.025V350.875H126.371V353.025H118.546ZM128.971 364V350.7H131.621V364H128.971ZM128.946 348.775V346.125H131.696V348.775H128.946ZM140.384 364.3C139.084 364.3 137.959 364.017 137.009 363.45C136.076 362.883 135.351 362.075 134.834 361.025C134.334 359.975 134.084 358.75 134.084 357.35C134.084 355.95 134.334 354.733 134.834 353.7C135.351 352.65 136.076 351.842 137.009 351.275C137.943 350.692 139.043 350.4 140.309 350.4C141.509 350.4 142.568 350.683 143.484 351.25C144.401 351.8 145.109 352.6 145.609 353.65C146.126 354.7 146.384 355.967 146.384 357.45V358.125H136.834C136.901 359.425 137.243 360.4 137.859 361.05C138.493 361.7 139.343 362.025 140.409 362.025C141.193 362.025 141.843 361.842 142.359 361.475C142.876 361.108 143.234 360.617 143.434 360L146.184 360.175C145.834 361.408 145.143 362.408 144.109 363.175C143.093 363.925 141.851 364.3 140.384 364.3ZM136.834 356.125H143.584C143.501 354.942 143.159 354.067 142.559 353.5C141.976 352.933 141.226 352.65 140.309 352.65C139.359 352.65 138.576 352.95 137.959 353.55C137.359 354.133 136.984 354.992 136.834 356.125ZM153.544 364.3C152.411 364.3 151.419 364.017 150.569 363.45C149.736 362.883 149.094 362.083 148.644 361.05C148.211 360 147.994 358.767 147.994 357.35C147.994 355.933 148.219 354.708 148.669 353.675C149.119 352.625 149.761 351.817 150.594 351.25C151.428 350.683 152.411 350.4 153.544 350.4C154.461 350.4 155.278 350.592 155.994 350.975C156.711 351.358 157.253 351.892 157.619 352.575V346.25H160.269V364H157.794L157.719 362C157.353 362.717 156.794 363.283 156.044 363.7C155.311 364.1 154.478 364.3 153.544 364.3ZM154.244 362C154.961 362 155.569 361.817 156.069 361.45C156.569 361.083 156.953 360.55 157.219 359.85C157.486 359.15 157.619 358.317 157.619 357.35C157.619 356.35 157.486 355.508 157.219 354.825C156.953 354.125 156.569 353.6 156.069 353.25C155.569 352.883 154.961 352.7 154.244 352.7C153.178 352.7 152.328 353.117 151.694 353.95C151.061 354.767 150.744 355.9 150.744 357.35C150.744 358.783 151.061 359.917 151.694 360.75C152.328 361.583 153.178 362 154.244 362ZM169.608 364V350.7H172.258V364H169.608ZM169.558 348.775V346.125H172.308V348.775H169.558ZM175.975 364V350.7H178.4L178.5 354.25L178.175 354.075C178.325 353.208 178.608 352.508 179.025 351.975C179.441 351.442 179.95 351.05 180.55 350.8C181.15 350.533 181.8 350.4 182.5 350.4C183.5 350.4 184.325 350.625 184.975 351.075C185.641 351.508 186.141 352.108 186.475 352.875C186.825 353.625 187 354.483 187 355.45V364H184.35V356.25C184.35 355.467 184.266 354.808 184.1 354.275C183.933 353.742 183.658 353.333 183.275 353.05C182.891 352.767 182.391 352.625 181.775 352.625C180.841 352.625 180.083 352.933 179.5 353.55C178.916 354.167 178.625 355.067 178.625 356.25V364H175.975ZM194.643 364C193.376 364 192.443 363.708 191.843 363.125C191.243 362.542 190.943 361.633 190.943 360.4V347.575H193.593V360.2C193.593 360.817 193.726 361.242 193.993 361.475C194.26 361.708 194.668 361.825 195.218 361.825H197.118V364H194.643ZM188.918 352.875V350.7H197.118V352.875H188.918ZM204.656 364.3C203.356 364.3 202.231 364.017 201.281 363.45C200.347 362.883 199.622 362.075 199.106 361.025C198.606 359.975 198.356 358.75 198.356 357.35C198.356 355.95 198.606 354.733 199.106 353.7C199.622 352.65 200.347 351.842 201.281 351.275C202.214 350.692 203.314 350.4 204.581 350.4C205.781 350.4 206.839 350.683 207.756 351.25C208.672 351.8 209.381 352.6 209.881 353.65C210.397 354.7 210.656 355.967 210.656 357.45V358.125H201.106C201.172 359.425 201.514 360.4 202.131 361.05C202.764 361.7 203.614 362.025 204.681 362.025C205.464 362.025 206.114 361.842 206.631 361.475C207.147 361.108 207.506 360.617 207.706 360L210.456 360.175C210.106 361.408 209.414 362.408 208.381 363.175C207.364 363.925 206.122 364.3 204.656 364.3ZM201.106 356.125H207.856C207.772 354.942 207.431 354.067 206.831 353.5C206.247 352.933 205.497 352.65 204.581 352.65C203.631 352.65 202.847 352.95 202.231 353.55C201.631 354.133 201.256 354.992 201.106 356.125ZM213.091 364V350.7H215.516L215.616 354.225L215.391 354.15C215.574 352.95 215.941 352.075 216.491 351.525C217.057 350.975 217.816 350.7 218.766 350.7H220.041V353.075H218.766C218.099 353.075 217.541 353.183 217.091 353.4C216.641 353.617 216.299 353.95 216.066 354.4C215.849 354.85 215.741 355.433 215.741 356.15V364H213.091ZM222.931 364V349.85C222.931 348.75 223.239 347.875 223.856 347.225C224.473 346.575 225.439 346.25 226.756 346.25H229.106V348.425H227.106C226.589 348.425 226.206 348.567 225.956 348.85C225.706 349.117 225.581 349.5 225.581 350V364H222.931ZM221.081 353.025V350.875H228.906V353.025H221.081ZM234.602 364.3C233.219 364.3 232.11 363.983 231.277 363.35C230.46 362.717 230.052 361.825 230.052 360.675C230.052 359.525 230.394 358.633 231.077 358C231.777 357.35 232.852 356.883 234.302 356.6L238.877 355.725C238.877 354.692 238.635 353.925 238.152 353.425C237.669 352.908 236.952 352.65 236.002 352.65C235.152 352.65 234.485 352.842 234.002 353.225C233.519 353.592 233.185 354.142 233.002 354.875L230.277 354.7C230.527 353.367 231.144 352.317 232.127 351.55C233.127 350.783 234.419 350.4 236.002 350.4C237.802 350.4 239.169 350.883 240.102 351.85C241.052 352.8 241.527 354.142 241.527 355.875V361.05C241.527 361.367 241.577 361.592 241.677 361.725C241.794 361.842 241.977 361.9 242.227 361.9H242.702V364C242.619 364.017 242.485 364.033 242.302 364.05C242.119 364.067 241.927 364.075 241.727 364.075C241.16 364.075 240.669 363.983 240.252 363.8C239.852 363.617 239.552 363.317 239.352 362.9C239.152 362.467 239.052 361.892 239.052 361.175L239.327 361.3C239.194 361.883 238.902 362.4 238.452 362.85C238.019 363.3 237.46 363.658 236.777 363.925C236.11 364.175 235.385 364.3 234.602 364.3ZM235.027 362.2C235.827 362.2 236.51 362.05 237.077 361.75C237.644 361.433 238.085 361 238.402 360.45C238.719 359.9 238.877 359.275 238.877 358.575V357.725L234.977 358.475C234.177 358.625 233.61 358.867 233.277 359.2C232.96 359.517 232.802 359.925 232.802 360.425C232.802 360.992 232.994 361.433 233.377 361.75C233.777 362.05 234.327 362.2 235.027 362.2ZM250.067 364.3C248.8 364.3 247.692 364.017 246.742 363.45C245.792 362.883 245.058 362.075 244.542 361.025C244.025 359.975 243.767 358.75 243.767 357.35C243.767 355.95 244.025 354.733 244.542 353.7C245.058 352.65 245.792 351.842 246.742 351.275C247.692 350.692 248.8 350.4 250.067 350.4C251.15 350.4 252.108 350.592 252.942 350.975C253.792 351.342 254.475 351.883 254.992 352.6C255.525 353.317 255.867 354.192 256.017 355.225L253.242 355.375C253.108 354.508 252.758 353.85 252.192 353.4C251.625 352.933 250.917 352.7 250.067 352.7C248.95 352.7 248.075 353.117 247.442 353.95C246.825 354.767 246.517 355.9 246.517 357.35C246.517 358.8 246.825 359.942 247.442 360.775C248.075 361.592 248.95 362 250.067 362C250.917 362 251.625 361.767 252.192 361.3C252.758 360.817 253.108 360.092 253.242 359.125L256.017 359.275C255.867 360.292 255.525 361.175 254.992 361.925C254.475 362.675 253.792 363.258 252.942 363.675C252.108 364.092 251.15 364.3 250.067 364.3ZM263.66 364.3C262.36 364.3 261.235 364.017 260.285 363.45C259.351 362.883 258.626 362.075 258.11 361.025C257.61 359.975 257.36 358.75 257.36 357.35C257.36 355.95 257.61 354.733 258.11 353.7C258.626 352.65 259.351 351.842 260.285 351.275C261.218 350.692 262.318 350.4 263.585 350.4C264.785 350.4 265.843 350.683 266.76 351.25C267.676 351.8 268.385 352.6 268.885 353.65C269.401 354.7 269.66 355.967 269.66 357.45V358.125H260.11C260.176 359.425 260.518 360.4 261.135 361.05C261.768 361.7 262.618 362.025 263.685 362.025C264.468 362.025 265.118 361.842 265.635 361.475C266.151 361.108 266.51 360.617 266.71 360L269.46 360.175C269.11 361.408 268.418 362.408 267.385 363.175C266.368 363.925 265.126 364.3 263.66 364.3ZM260.11 356.125H266.86C266.776 354.942 266.435 354.067 265.835 353.5C265.251 352.933 264.501 352.65 263.585 352.65C262.635 352.65 261.851 352.95 261.235 353.55C260.635 354.133 260.26 354.992 260.11 356.125ZM278.168 364V350.7H280.593L280.668 354L280.368 353.9C280.518 353.167 280.776 352.542 281.143 352.025C281.526 351.508 281.993 351.108 282.543 350.825C283.093 350.542 283.693 350.4 284.343 350.4C285.476 350.4 286.401 350.725 287.118 351.375C287.835 352.008 288.285 352.883 288.468 354H288.043C288.193 353.217 288.443 352.567 288.793 352.05C289.16 351.517 289.626 351.108 290.193 350.825C290.76 350.542 291.401 350.4 292.118 350.4C293.051 350.4 293.843 350.6 294.493 351C295.16 351.383 295.66 351.95 295.993 352.7C296.343 353.45 296.518 354.367 296.518 355.45V364H293.868V356.1C293.868 354.95 293.66 354.083 293.243 353.5C292.826 352.917 292.193 352.625 291.343 352.625C290.793 352.625 290.31 352.767 289.893 353.05C289.476 353.333 289.151 353.742 288.918 354.275C288.701 354.808 288.593 355.45 288.593 356.2V364H286.068V356.2C286.068 355.067 285.876 354.192 285.493 353.575C285.126 352.942 284.493 352.625 283.593 352.625C283.026 352.625 282.535 352.767 282.118 353.05C281.718 353.333 281.401 353.75 281.168 354.3C280.935 354.833 280.818 355.467 280.818 356.2V364H278.168ZM305.219 364.3C303.952 364.3 302.844 364.017 301.894 363.45C300.944 362.883 300.211 362.075 299.694 361.025C299.177 359.975 298.919 358.75 298.919 357.35C298.919 355.933 299.177 354.708 299.694 353.675C300.211 352.642 300.944 351.842 301.894 351.275C302.844 350.692 303.952 350.4 305.219 350.4C306.486 350.4 307.594 350.692 308.544 351.275C309.494 351.842 310.227 352.642 310.744 353.675C311.261 354.708 311.519 355.933 311.519 357.35C311.519 358.75 311.261 359.975 310.744 361.025C310.227 362.075 309.494 362.883 308.544 363.45C307.594 364.017 306.486 364.3 305.219 364.3ZM305.219 362C306.352 362 307.227 361.592 307.844 360.775C308.461 359.942 308.769 358.8 308.769 357.35C308.769 355.9 308.461 354.767 307.844 353.95C307.227 353.117 306.352 352.7 305.219 352.7C304.102 352.7 303.227 353.117 302.594 353.95C301.977 354.767 301.669 355.9 301.669 357.35C301.669 358.8 301.977 359.942 302.594 360.775C303.227 361.592 304.102 362 305.219 362ZM318.672 364.3C317.539 364.3 316.547 364.017 315.697 363.45C314.864 362.883 314.222 362.083 313.772 361.05C313.339 360 313.122 358.767 313.122 357.35C313.122 355.933 313.347 354.708 313.797 353.675C314.247 352.625 314.889 351.817 315.722 351.25C316.556 350.683 317.539 350.4 318.672 350.4C319.589 350.4 320.406 350.592 321.122 350.975C321.839 351.358 322.381 351.892 322.747 352.575V346.25H325.397V364H322.922L322.847 362C322.481 362.717 321.922 363.283 321.172 363.7C320.439 364.1 319.606 364.3 318.672 364.3ZM319.372 362C320.089 362 320.697 361.817 321.197 361.45C321.697 361.083 322.081 360.55 322.347 359.85C322.614 359.15 322.747 358.317 322.747 357.35C322.747 356.35 322.614 355.508 322.347 354.825C322.081 354.125 321.697 353.6 321.197 353.25C320.697 352.883 320.089 352.7 319.372 352.7C318.306 352.7 317.456 353.117 316.822 353.95C316.189 354.767 315.872 355.9 315.872 357.35C315.872 358.783 316.189 359.917 316.822 360.75C317.456 361.583 318.306 362 319.372 362ZM334.138 364.3C332.838 364.3 331.713 364.017 330.763 363.45C329.83 362.883 329.105 362.075 328.588 361.025C328.088 359.975 327.838 358.75 327.838 357.35C327.838 355.95 328.088 354.733 328.588 353.7C329.105 352.65 329.83 351.842 330.763 351.275C331.696 350.692 332.796 350.4 334.063 350.4C335.263 350.4 336.321 350.683 337.238 351.25C338.155 351.8 338.863 352.6 339.363 353.65C339.88 354.7 340.138 355.967 340.138 357.45V358.125H330.588C330.655 359.425 330.996 360.4 331.613 361.05C332.246 361.7 333.096 362.025 334.163 362.025C334.946 362.025 335.596 361.842 336.113 361.475C336.63 361.108 336.988 360.617 337.188 360L339.938 360.175C339.588 361.408 338.896 362.408 337.863 363.175C336.846 363.925 335.605 364.3 334.138 364.3ZM330.588 356.125H337.338C337.255 354.942 336.913 354.067 336.313 353.5C335.73 352.933 334.98 352.65 334.063 352.65C333.113 352.65 332.33 352.95 331.713 353.55C331.113 354.133 330.738 354.992 330.588 356.125ZM345.595 364C344.729 364 344.029 363.775 343.495 363.325C342.962 362.875 342.695 362.158 342.695 361.175V346.25H345.345V360.925C345.345 361.225 345.42 361.45 345.57 361.6C345.737 361.75 345.97 361.825 346.27 361.825H347.32V364H345.595ZM356.68 364V349.85C356.68 348.75 356.988 347.875 357.605 347.225C358.222 346.575 359.188 346.25 360.505 346.25H362.855V348.425H360.855C360.338 348.425 359.955 348.567 359.705 348.85C359.455 349.117 359.33 349.5 359.33 350V364H356.68ZM354.83 353.025V350.875H362.655V353.025H354.83ZM369.808 364.3C368.541 364.3 367.433 364.017 366.483 363.45C365.533 362.883 364.8 362.075 364.283 361.025C363.766 359.975 363.508 358.75 363.508 357.35C363.508 355.933 363.766 354.708 364.283 353.675C364.8 352.642 365.533 351.842 366.483 351.275C367.433 350.692 368.541 350.4 369.808 350.4C371.075 350.4 372.183 350.692 373.133 351.275C374.083 351.842 374.816 352.642 375.333 353.675C375.85 354.708 376.108 355.933 376.108 357.35C376.108 358.75 375.85 359.975 375.333 361.025C374.816 362.075 374.083 362.883 373.133 363.45C372.183 364.017 371.075 364.3 369.808 364.3ZM369.808 362C370.941 362 371.816 361.592 372.433 360.775C373.05 359.942 373.358 358.8 373.358 357.35C373.358 355.9 373.05 354.767 372.433 353.95C371.816 353.117 370.941 352.7 369.808 352.7C368.691 352.7 367.816 353.117 367.183 353.95C366.566 354.767 366.258 355.9 366.258 357.35C366.258 358.8 366.566 359.942 367.183 360.775C367.816 361.592 368.691 362 369.808 362ZM378.536 364V350.7H380.961L381.061 354.225L380.836 354.15C381.019 352.95 381.386 352.075 381.936 351.525C382.503 350.975 383.261 350.7 384.211 350.7H385.486V353.075H384.211C383.544 353.075 382.986 353.183 382.536 353.4C382.086 353.617 381.744 353.95 381.511 354.4C381.294 354.85 381.186 355.433 381.186 356.15V364H378.536ZM394.229 364V346.25H405.779V348.725H396.929V353.9H405.479V356.3H396.929V361.525H405.979V364H394.229ZM416.263 364.4C414.663 364.4 413.255 364.033 412.038 363.3C410.822 362.55 409.872 361.483 409.188 360.1C408.505 358.717 408.163 357.067 408.163 355.15C408.163 353.25 408.497 351.608 409.163 350.225C409.847 348.825 410.797 347.75 412.013 347C413.23 346.233 414.655 345.85 416.288 345.85C418.488 345.85 420.197 346.4 421.413 347.5C422.63 348.6 423.422 350.125 423.788 352.075L420.963 352.225C420.73 351.008 420.23 350.058 419.463 349.375C418.697 348.675 417.638 348.325 416.288 348.325C415.205 348.325 414.263 348.6 413.463 349.15C412.68 349.7 412.063 350.483 411.613 351.5C411.18 352.517 410.963 353.733 410.963 355.15C410.963 356.567 411.18 357.783 411.613 358.8C412.063 359.817 412.688 360.592 413.488 361.125C414.288 361.658 415.213 361.925 416.263 361.925C417.697 361.925 418.805 361.55 419.588 360.8C420.388 360.033 420.888 358.983 421.088 357.65L423.913 357.8C423.697 359.15 423.263 360.317 422.613 361.3C421.963 362.283 421.105 363.05 420.038 363.6C418.972 364.133 417.713 364.4 416.263 364.4ZM67.3398 396.3C66.0898 396.3 65.0315 396.108 64.1648 395.725C63.3148 395.342 62.6565 394.817 62.1898 394.15C61.7232 393.467 61.4565 392.683 61.3898 391.8L64.1148 391.675C64.2482 392.408 64.5648 392.992 65.0648 393.425C65.5648 393.858 66.3232 394.075 67.3398 394.075C68.1732 394.075 68.8315 393.942 69.3148 393.675C69.7982 393.408 70.0398 392.983 70.0398 392.4C70.0398 392.083 69.9565 391.817 69.7898 391.6C69.6398 391.367 69.3398 391.175 68.8898 391.025C68.4398 390.858 67.7732 390.7 66.8898 390.55C65.5732 390.3 64.5398 390.008 63.7898 389.675C63.0398 389.342 62.5065 388.917 62.1898 388.4C61.8732 387.883 61.7148 387.258 61.7148 386.525C61.7148 385.308 62.1648 384.317 63.0648 383.55C63.9815 382.783 65.2982 382.4 67.0148 382.4C68.1648 382.4 69.1315 382.6 69.9148 383C70.6982 383.383 71.3065 383.908 71.7398 384.575C72.1898 385.225 72.4732 385.958 72.5898 386.775L69.8648 386.925C69.7815 386.458 69.6148 386.058 69.3648 385.725C69.1315 385.375 68.8148 385.108 68.4148 384.925C68.0148 384.725 67.5398 384.625 66.9898 384.625C66.1398 384.625 65.5065 384.792 65.0898 385.125C64.6732 385.458 64.4648 385.892 64.4648 386.425C64.4648 386.825 64.5565 387.15 64.7398 387.4C64.9398 387.65 65.2565 387.858 65.6898 388.025C66.1232 388.175 66.6982 388.308 67.4148 388.425C68.7982 388.658 69.8815 388.95 70.6648 389.3C71.4482 389.633 71.9982 390.05 72.3148 390.55C72.6315 391.05 72.7898 391.658 72.7898 392.375C72.7898 393.208 72.5565 393.917 72.0898 394.5C71.6232 395.083 70.9815 395.533 70.1648 395.85C69.3482 396.15 68.4065 396.3 67.3398 396.3ZM80.6967 396.3C79.3967 396.3 78.2717 396.017 77.3217 395.45C76.3883 394.883 75.6633 394.075 75.1467 393.025C74.6467 391.975 74.3967 390.75 74.3967 389.35C74.3967 387.95 74.6467 386.733 75.1467 385.7C75.6633 384.65 76.3883 383.842 77.3217 383.275C78.255 382.692 79.355 382.4 80.6217 382.4C81.8217 382.4 82.88 382.683 83.7967 383.25C84.7133 383.8 85.4217 384.6 85.9217 385.65C86.4383 386.7 86.6967 387.967 86.6967 389.45V390.125H77.1467C77.2133 391.425 77.555 392.4 78.1717 393.05C78.805 393.7 79.655 394.025 80.7217 394.025C81.505 394.025 82.155 393.842 82.6717 393.475C83.1883 393.108 83.5467 392.617 83.7467 392L86.4967 392.175C86.1467 393.408 85.455 394.408 84.4217 395.175C83.405 395.925 82.1633 396.3 80.6967 396.3ZM77.1467 388.125H83.8967C83.8133 386.942 83.4717 386.067 82.8717 385.5C82.2883 384.933 81.5383 384.65 80.6217 384.65C79.6717 384.65 78.8883 384.95 78.2717 385.55C77.6717 386.133 77.2967 386.992 77.1467 388.125ZM89.1318 396V382.7H91.5568L91.6568 386.225L91.4318 386.15C91.6152 384.95 91.9818 384.075 92.5318 383.525C93.0985 382.975 93.8568 382.7 94.8068 382.7H96.0818V385.075H94.8068C94.1402 385.075 93.5818 385.183 93.1318 385.4C92.6818 385.617 92.3402 385.95 92.1068 386.4C91.8902 386.85 91.7818 387.433 91.7818 388.15V396H89.1318ZM101.635 396L96.7854 382.7H99.6104L103.235 393.3L106.86 382.7H109.71L104.835 396H101.635ZM111.605 396V382.7H114.255V396H111.605ZM111.555 380.775V378.125H114.305V380.775H111.555ZM122.983 396.3C121.716 396.3 120.608 396.017 119.658 395.45C118.708 394.883 117.974 394.075 117.458 393.025C116.941 391.975 116.683 390.75 116.683 389.35C116.683 387.95 116.941 386.733 117.458 385.7C117.974 384.65 118.708 383.842 119.658 383.275C120.608 382.692 121.716 382.4 122.983 382.4C124.066 382.4 125.024 382.592 125.858 382.975C126.708 383.342 127.391 383.883 127.908 384.6C128.441 385.317 128.783 386.192 128.933 387.225L126.158 387.375C126.024 386.508 125.674 385.85 125.108 385.4C124.541 384.933 123.833 384.7 122.983 384.7C121.866 384.7 120.991 385.117 120.358 385.95C119.741 386.767 119.433 387.9 119.433 389.35C119.433 390.8 119.741 391.942 120.358 392.775C120.991 393.592 121.866 394 122.983 394C123.833 394 124.541 393.767 125.108 393.3C125.674 392.817 126.024 392.092 126.158 391.125L128.933 391.275C128.783 392.292 128.441 393.175 127.908 393.925C127.391 394.675 126.708 395.258 125.858 395.675C125.024 396.092 124.066 396.3 122.983 396.3ZM136.576 396.3C135.276 396.3 134.151 396.017 133.201 395.45C132.267 394.883 131.542 394.075 131.026 393.025C130.526 391.975 130.276 390.75 130.276 389.35C130.276 387.95 130.526 386.733 131.026 385.7C131.542 384.65 132.267 383.842 133.201 383.275C134.134 382.692 135.234 382.4 136.501 382.4C137.701 382.4 138.759 382.683 139.676 383.25C140.592 383.8 141.301 384.6 141.801 385.65C142.317 386.7 142.576 387.967 142.576 389.45V390.125H133.026C133.092 391.425 133.434 392.4 134.051 393.05C134.684 393.7 135.534 394.025 136.601 394.025C137.384 394.025 138.034 393.842 138.551 393.475C139.067 393.108 139.426 392.617 139.626 392L142.376 392.175C142.026 393.408 141.334 394.408 140.301 395.175C139.284 395.925 138.042 396.3 136.576 396.3ZM133.026 388.125H139.776C139.692 386.942 139.351 386.067 138.751 385.5C138.167 384.933 137.417 384.65 136.501 384.65C135.551 384.65 134.767 384.95 134.151 385.55C133.551 386.133 133.176 386.992 133.026 388.125ZM150.136 396.3C148.886 396.3 147.827 396.108 146.961 395.725C146.111 395.342 145.452 394.817 144.986 394.15C144.519 393.467 144.252 392.683 144.186 391.8L146.911 391.675C147.044 392.408 147.361 392.992 147.861 393.425C148.361 393.858 149.119 394.075 150.136 394.075C150.969 394.075 151.627 393.942 152.111 393.675C152.594 393.408 152.836 392.983 152.836 392.4C152.836 392.083 152.752 391.817 152.586 391.6C152.436 391.367 152.136 391.175 151.686 391.025C151.236 390.858 150.569 390.7 149.686 390.55C148.369 390.3 147.336 390.008 146.586 389.675C145.836 389.342 145.302 388.917 144.986 388.4C144.669 387.883 144.511 387.258 144.511 386.525C144.511 385.308 144.961 384.317 145.861 383.55C146.777 382.783 148.094 382.4 149.811 382.4C150.961 382.4 151.927 382.6 152.711 383C153.494 383.383 154.102 383.908 154.536 384.575C154.986 385.225 155.269 385.958 155.386 386.775L152.661 386.925C152.577 386.458 152.411 386.058 152.161 385.725C151.927 385.375 151.611 385.108 151.211 384.925C150.811 384.725 150.336 384.625 149.786 384.625C148.936 384.625 148.302 384.792 147.886 385.125C147.469 385.458 147.261 385.892 147.261 386.425C147.261 386.825 147.352 387.15 147.536 387.4C147.736 387.65 148.052 387.858 148.486 388.025C148.919 388.175 149.494 388.308 150.211 388.425C151.594 388.658 152.677 388.95 153.461 389.3C154.244 389.633 154.794 390.05 155.111 390.55C155.427 391.05 155.586 391.658 155.586 392.375C155.586 393.208 155.352 393.917 154.886 394.5C154.419 395.083 153.777 395.533 152.961 395.85C152.144 396.15 151.202 396.3 150.136 396.3ZM157.562 399.925L158.812 396H157.437V392.85H160.662V395.625L159.087 399.925H157.562ZM174.288 396.3C173.038 396.3 171.98 396.108 171.113 395.725C170.263 395.342 169.605 394.817 169.138 394.15C168.671 393.467 168.405 392.683 168.338 391.8L171.063 391.675C171.196 392.408 171.513 392.992 172.013 393.425C172.513 393.858 173.271 394.075 174.288 394.075C175.121 394.075 175.78 393.942 176.263 393.675C176.746 393.408 176.988 392.983 176.988 392.4C176.988 392.083 176.905 391.817 176.738 391.6C176.588 391.367 176.288 391.175 175.838 391.025C175.388 390.858 174.721 390.7 173.838 390.55C172.521 390.3 171.488 390.008 170.738 389.675C169.988 389.342 169.455 388.917 169.138 388.4C168.821 387.883 168.663 387.258 168.663 386.525C168.663 385.308 169.113 384.317 170.013 383.55C170.93 382.783 172.246 382.4 173.963 382.4C175.113 382.4 176.08 382.6 176.863 383C177.646 383.383 178.255 383.908 178.688 384.575C179.138 385.225 179.421 385.958 179.538 386.775L176.813 386.925C176.73 386.458 176.563 386.058 176.313 385.725C176.08 385.375 175.763 385.108 175.363 384.925C174.963 384.725 174.488 384.625 173.938 384.625C173.088 384.625 172.455 384.792 172.038 385.125C171.621 385.458 171.413 385.892 171.413 386.425C171.413 386.825 171.505 387.15 171.688 387.4C171.888 387.65 172.205 387.858 172.638 388.025C173.071 388.175 173.646 388.308 174.363 388.425C175.746 388.658 176.83 388.95 177.613 389.3C178.396 389.633 178.946 390.05 179.263 390.55C179.58 391.05 179.738 391.658 179.738 392.375C179.738 393.208 179.505 393.917 179.038 394.5C178.571 395.083 177.93 395.533 177.113 395.85C176.296 396.15 175.355 396.3 174.288 396.3ZM182.17 396V382.7H184.82V396H182.17ZM182.12 380.775V378.125H184.87V380.775H182.12ZM188.536 396V382.7H190.961L191.036 386L190.736 385.9C190.886 385.167 191.144 384.542 191.511 384.025C191.894 383.508 192.361 383.108 192.911 382.825C193.461 382.542 194.061 382.4 194.711 382.4C195.844 382.4 196.769 382.725 197.486 383.375C198.203 384.008 198.653 384.883 198.836 386H198.411C198.561 385.217 198.811 384.567 199.161 384.05C199.528 383.517 199.994 383.108 200.561 382.825C201.128 382.542 201.769 382.4 202.486 382.4C203.419 382.4 204.211 382.6 204.861 383C205.528 383.383 206.028 383.95 206.361 384.7C206.711 385.45 206.886 386.367 206.886 387.45V396H204.236V388.1C204.236 386.95 204.028 386.083 203.611 385.5C203.194 384.917 202.561 384.625 201.711 384.625C201.161 384.625 200.678 384.767 200.261 385.05C199.844 385.333 199.519 385.742 199.286 386.275C199.069 386.808 198.961 387.45 198.961 388.2V396H196.436V388.2C196.436 387.067 196.244 386.192 195.861 385.575C195.494 384.942 194.861 384.625 193.961 384.625C193.394 384.625 192.903 384.767 192.486 385.05C192.086 385.333 191.769 385.75 191.536 386.3C191.303 386.833 191.186 387.467 191.186 388.2V396H188.536ZM209.941 399.75V382.7H212.441L212.516 385.55L212.216 385.4C212.55 384.417 213.1 383.675 213.866 383.175C214.633 382.658 215.516 382.4 216.516 382.4C217.816 382.4 218.883 382.725 219.716 383.375C220.566 384.008 221.191 384.85 221.591 385.9C222.008 386.95 222.216 388.1 222.216 389.35C222.216 390.6 222.008 391.75 221.591 392.8C221.191 393.85 220.566 394.7 219.716 395.35C218.883 395.983 217.816 396.3 216.516 396.3C215.85 396.3 215.225 396.183 214.641 395.95C214.058 395.717 213.558 395.392 213.141 394.975C212.741 394.542 212.458 394.033 212.291 393.45L212.591 393.15V399.75H209.941ZM216.041 394C217.108 394 217.941 393.592 218.541 392.775C219.158 391.958 219.466 390.817 219.466 389.35C219.466 387.883 219.158 386.742 218.541 385.925C217.941 385.108 217.108 384.7 216.041 384.7C215.341 384.7 214.733 384.875 214.216 385.225C213.7 385.558 213.3 386.075 213.016 386.775C212.733 387.475 212.591 388.333 212.591 389.35C212.591 390.367 212.725 391.225 212.991 391.925C213.275 392.625 213.675 393.15 214.191 393.5C214.725 393.833 215.341 394 216.041 394ZM227.679 396C226.813 396 226.113 395.775 225.579 395.325C225.046 394.875 224.779 394.158 224.779 393.175V378.25H227.429V392.925C227.429 393.225 227.504 393.45 227.654 393.6C227.821 393.75 228.054 393.825 228.354 393.825H229.404V396H227.679ZM231.39 396V382.7H234.04V396H231.39ZM231.34 380.775V378.125H234.09V380.775H231.34ZM238.08 396V381.85C238.08 380.75 238.389 379.875 239.005 379.225C239.622 378.575 240.589 378.25 241.905 378.25H244.255V380.425H242.255C241.739 380.425 241.355 380.567 241.105 380.85C240.855 381.117 240.73 381.5 240.73 382V396H238.08ZM236.23 385.025V382.875H244.055V385.025H236.23ZM247.533 399.75V397.575H249.158C249.608 397.575 249.942 397.508 250.158 397.375C250.375 397.242 250.542 397.017 250.658 396.7L251.083 395.6H250.258L245.458 382.7H248.258L251.908 393.15L255.383 382.7H258.208L252.908 397.55C252.642 398.317 252.242 398.875 251.708 399.225C251.192 399.575 250.467 399.75 249.533 399.75H247.533ZM260.107 396V382.7H262.757V396H260.107ZM260.057 380.775V378.125H262.807V380.775H260.057ZM266.474 396V382.7H268.899L268.999 386.25L268.674 386.075C268.824 385.208 269.107 384.508 269.524 383.975C269.94 383.442 270.449 383.05 271.049 382.8C271.649 382.533 272.299 382.4 272.999 382.4C273.999 382.4 274.824 382.625 275.474 383.075C276.14 383.508 276.64 384.108 276.974 384.875C277.324 385.625 277.499 386.483 277.499 387.45V396H274.849V388.25C274.849 387.467 274.765 386.808 274.599 386.275C274.432 385.742 274.157 385.333 273.774 385.05C273.39 384.767 272.89 384.625 272.274 384.625C271.34 384.625 270.582 384.933 269.999 385.55C269.415 386.167 269.124 387.067 269.124 388.25V396H266.474ZM286.051 400.05C285.001 400.05 284.076 399.892 283.276 399.575C282.476 399.258 281.818 398.808 281.301 398.225C280.785 397.658 280.435 396.992 280.251 396.225L283.001 396.05C283.185 396.6 283.501 397.033 283.951 397.35C284.418 397.683 285.118 397.85 286.051 397.85C287.151 397.85 287.993 397.617 288.576 397.15C289.176 396.683 289.476 395.975 289.476 395.025V393.1C289.16 393.783 288.651 394.325 287.951 394.725C287.251 395.125 286.468 395.325 285.601 395.325C284.485 395.325 283.493 395.05 282.626 394.5C281.76 393.95 281.085 393.192 280.601 392.225C280.118 391.258 279.876 390.142 279.876 388.875C279.876 387.592 280.11 386.467 280.576 385.5C281.06 384.533 281.726 383.775 282.576 383.225C283.443 382.675 284.418 382.4 285.501 382.4C286.451 382.4 287.285 382.617 288.001 383.05C288.735 383.483 289.26 384.067 289.576 384.8V382.7H292.126V394.95C292.126 396.05 291.876 396.975 291.376 397.725C290.893 398.492 290.193 399.067 289.276 399.45C288.376 399.85 287.301 400.05 286.051 400.05ZM286.026 393.075C287.06 393.075 287.885 392.7 288.501 391.95C289.135 391.2 289.46 390.167 289.476 388.85C289.493 387.983 289.36 387.242 289.076 386.625C288.793 385.992 288.385 385.508 287.851 385.175C287.335 384.825 286.726 384.65 286.026 384.65C284.943 384.65 284.101 385.033 283.501 385.8C282.918 386.55 282.626 387.567 282.626 388.85C282.626 390.15 282.926 391.183 283.526 391.95C284.143 392.7 284.976 393.075 286.026 393.075ZM301.466 396V382.7H304.116V396H301.466ZM301.416 380.775V378.125H304.166V380.775H301.416ZM307.832 396V382.7H310.257L310.357 386.25L310.032 386.075C310.182 385.208 310.465 384.508 310.882 383.975C311.299 383.442 311.807 383.05 312.407 382.8C313.007 382.533 313.657 382.4 314.357 382.4C315.357 382.4 316.182 382.625 316.832 383.075C317.499 383.508 317.999 384.108 318.332 384.875C318.682 385.625 318.857 386.483 318.857 387.45V396H316.207V388.25C316.207 387.467 316.124 386.808 315.957 386.275C315.79 385.742 315.515 385.333 315.132 385.05C314.749 384.767 314.249 384.625 313.632 384.625C312.699 384.625 311.94 384.933 311.357 385.55C310.774 386.167 310.482 387.067 310.482 388.25V396H307.832ZM326.5 396C325.234 396 324.3 395.708 323.7 395.125C323.1 394.542 322.8 393.633 322.8 392.4V379.575H325.45V392.2C325.45 392.817 325.584 393.242 325.85 393.475C326.117 393.708 326.525 393.825 327.075 393.825H328.975V396H326.5ZM320.775 384.875V382.7H328.975V384.875H320.775ZM336.513 396.3C335.213 396.3 334.088 396.017 333.138 395.45C332.205 394.883 331.48 394.075 330.963 393.025C330.463 391.975 330.213 390.75 330.213 389.35C330.213 387.95 330.463 386.733 330.963 385.7C331.48 384.65 332.205 383.842 333.138 383.275C334.071 382.692 335.171 382.4 336.438 382.4C337.638 382.4 338.696 382.683 339.613 383.25C340.53 383.8 341.238 384.6 341.738 385.65C342.255 386.7 342.513 387.967 342.513 389.45V390.125H332.963C333.03 391.425 333.371 392.4 333.988 393.05C334.621 393.7 335.471 394.025 336.538 394.025C337.321 394.025 337.971 393.842 338.488 393.475C339.005 393.108 339.363 392.617 339.563 392L342.313 392.175C341.963 393.408 341.271 394.408 340.238 395.175C339.221 395.925 337.98 396.3 336.513 396.3ZM332.963 388.125H339.713C339.63 386.942 339.288 386.067 338.688 385.5C338.105 384.933 337.355 384.65 336.438 384.65C335.488 384.65 334.705 384.95 334.088 385.55C333.488 386.133 333.113 386.992 332.963 388.125ZM350.298 400.05C349.248 400.05 348.323 399.892 347.523 399.575C346.723 399.258 346.065 398.808 345.548 398.225C345.032 397.658 344.682 396.992 344.498 396.225L347.248 396.05C347.432 396.6 347.748 397.033 348.198 397.35C348.665 397.683 349.365 397.85 350.298 397.85C351.398 397.85 352.24 397.617 352.823 397.15C353.423 396.683 353.723 395.975 353.723 395.025V393.1C353.407 393.783 352.898 394.325 352.198 394.725C351.498 395.125 350.715 395.325 349.848 395.325C348.732 395.325 347.74 395.05 346.873 394.5C346.007 393.95 345.332 393.192 344.848 392.225C344.365 391.258 344.123 390.142 344.123 388.875C344.123 387.592 344.357 386.467 344.823 385.5C345.307 384.533 345.973 383.775 346.823 383.225C347.69 382.675 348.665 382.4 349.748 382.4C350.698 382.4 351.532 382.617 352.248 383.05C352.982 383.483 353.507 384.067 353.823 384.8V382.7H356.373V394.95C356.373 396.05 356.123 396.975 355.623 397.725C355.14 398.492 354.44 399.067 353.523 399.45C352.623 399.85 351.548 400.05 350.298 400.05ZM350.273 393.075C351.307 393.075 352.132 392.7 352.748 391.95C353.382 391.2 353.707 390.167 353.723 388.85C353.74 387.983 353.607 387.242 353.323 386.625C353.04 385.992 352.632 385.508 352.098 385.175C351.582 384.825 350.973 384.65 350.273 384.65C349.19 384.65 348.348 385.033 347.748 385.8C347.165 386.55 346.873 387.567 346.873 388.85C346.873 390.15 347.173 391.183 347.773 391.95C348.39 392.7 349.223 393.075 350.273 393.075ZM359.884 396V382.7H362.309L362.409 386.225L362.184 386.15C362.367 384.95 362.734 384.075 363.284 383.525C363.85 382.975 364.609 382.7 365.559 382.7H366.834V385.075H365.559C364.892 385.075 364.334 385.183 363.884 385.4C363.434 385.617 363.092 385.95 362.859 386.4C362.642 386.85 362.534 387.433 362.534 388.15V396H359.884ZM372.246 396.3C370.862 396.3 369.754 395.983 368.921 395.35C368.104 394.717 367.696 393.825 367.696 392.675C367.696 391.525 368.037 390.633 368.721 390C369.421 389.35 370.496 388.883 371.946 388.6L376.521 387.725C376.521 386.692 376.279 385.925 375.796 385.425C375.312 384.908 374.596 384.65 373.646 384.65C372.796 384.65 372.129 384.842 371.646 385.225C371.162 385.592 370.829 386.142 370.646 386.875L367.921 386.7C368.171 385.367 368.787 384.317 369.771 383.55C370.771 382.783 372.062 382.4 373.646 382.4C375.446 382.4 376.812 382.883 377.746 383.85C378.696 384.8 379.171 386.142 379.171 387.875V393.05C379.171 393.367 379.221 393.592 379.321 393.725C379.437 393.842 379.621 393.9 379.871 393.9H380.346V396C380.262 396.017 380.129 396.033 379.946 396.05C379.762 396.067 379.571 396.075 379.371 396.075C378.804 396.075 378.312 395.983 377.896 395.8C377.496 395.617 377.196 395.317 376.996 394.9C376.796 394.467 376.696 393.892 376.696 393.175L376.971 393.3C376.837 393.883 376.546 394.4 376.096 394.85C375.662 395.3 375.104 395.658 374.421 395.925C373.754 396.175 373.029 396.3 372.246 396.3ZM372.671 394.2C373.471 394.2 374.154 394.05 374.721 393.75C375.287 393.433 375.729 393 376.046 392.45C376.362 391.9 376.521 391.275 376.521 390.575V389.725L372.621 390.475C371.821 390.625 371.254 390.867 370.921 391.2C370.604 391.517 370.446 391.925 370.446 392.425C370.446 392.992 370.637 393.433 371.021 393.75C371.421 394.05 371.971 394.2 372.671 394.2ZM386.749 396C385.483 396 384.549 395.708 383.949 395.125C383.349 394.542 383.049 393.633 383.049 392.4V379.575H385.699V392.2C385.699 392.817 385.833 393.242 386.099 393.475C386.366 393.708 386.774 393.825 387.324 393.825H389.224V396H386.749ZM381.024 384.875V382.7H389.224V384.875H381.024ZM391.507 396V382.7H394.157V396H391.507ZM391.457 380.775V378.125H394.207V380.775H391.457ZM402.884 396.3C401.618 396.3 400.509 396.017 399.559 395.45C398.609 394.883 397.876 394.075 397.359 393.025C396.843 391.975 396.584 390.75 396.584 389.35C396.584 387.933 396.843 386.708 397.359 385.675C397.876 384.642 398.609 383.842 399.559 383.275C400.509 382.692 401.618 382.4 402.884 382.4C404.151 382.4 405.259 382.692 406.209 383.275C407.159 383.842 407.893 384.642 408.409 385.675C408.926 386.708 409.184 387.933 409.184 389.35C409.184 390.75 408.926 391.975 408.409 393.025C407.893 394.075 407.159 394.883 406.209 395.45C405.259 396.017 404.151 396.3 402.884 396.3ZM402.884 394C404.018 394 404.893 393.592 405.509 392.775C406.126 391.942 406.434 390.8 406.434 389.35C406.434 387.9 406.126 386.767 405.509 385.95C404.893 385.117 404.018 384.7 402.884 384.7C401.768 384.7 400.893 385.117 400.259 385.95C399.643 386.767 399.334 387.9 399.334 389.35C399.334 390.8 399.643 391.942 400.259 392.775C400.893 393.592 401.768 394 402.884 394ZM411.612 396V382.7H414.037L414.137 386.25L413.812 386.075C413.962 385.208 414.246 384.508 414.662 383.975C415.079 383.442 415.587 383.05 416.187 382.8C416.787 382.533 417.437 382.4 418.137 382.4C419.137 382.4 419.962 382.625 420.612 383.075C421.279 383.508 421.779 384.108 422.112 384.875C422.462 385.625 422.637 386.483 422.637 387.45V396H419.987V388.25C419.987 387.467 419.904 386.808 419.737 386.275C419.571 385.742 419.296 385.333 418.912 385.05C418.529 384.767 418.029 384.625 417.412 384.625C416.479 384.625 415.721 384.933 415.137 385.55C414.554 386.167 414.262 387.067 414.262 388.25V396H411.612ZM434.687 396L430.637 382.7H433.412L436.262 393.1L439.187 382.7H441.687L444.612 393.1L447.487 382.7H450.262L446.212 396H443.237L440.437 386.5L437.637 396H434.687ZM452.195 396V382.7H454.845V396H452.195ZM452.145 380.775V378.125H454.895V380.775H452.145ZM462.538 396C461.272 396 460.338 395.708 459.738 395.125C459.138 394.542 458.838 393.633 458.838 392.4V379.575H461.488V392.2C461.488 392.817 461.622 393.242 461.888 393.475C462.155 393.708 462.563 393.825 463.113 393.825H465.013V396H462.538ZM456.813 384.875V382.7H465.013V384.875H456.813ZM467.296 396V378.25H469.946V385.7L469.621 385.65C469.771 384.9 470.046 384.292 470.446 383.825C470.846 383.342 471.338 382.983 471.921 382.75C472.504 382.517 473.146 382.4 473.846 382.4C474.813 382.4 475.629 382.617 476.296 383.05C476.963 383.467 477.463 384.058 477.796 384.825C478.146 385.592 478.321 386.467 478.321 387.45V396H475.671V388.15C475.671 386.95 475.463 386.067 475.046 385.5C474.646 384.917 474.013 384.625 473.146 384.625C472.179 384.625 471.404 384.933 470.821 385.55C470.238 386.15 469.946 387.033 469.946 388.2V396H467.296ZM65.9898 428L61.2898 410.25H64.1648L67.6148 424.275L71.0648 410.25H73.8148L77.2648 424.275L80.6898 410.25H83.6148L78.8898 428H75.7398L72.4398 415.05L69.1398 428H65.9898ZM85.5488 428V414.7H88.1988V428H85.5488ZM85.4988 412.775V410.125H88.2488V412.775H85.4988ZM91.915 428V414.7H94.34L94.44 418.25L94.115 418.075C94.265 417.208 94.5484 416.508 94.965 415.975C95.3817 415.442 95.89 415.05 96.49 414.8C97.09 414.533 97.74 414.4 98.44 414.4C99.44 414.4 100.265 414.625 100.915 415.075C101.582 415.508 102.082 416.108 102.415 416.875C102.765 417.625 102.94 418.483 102.94 419.45V428H100.29V420.25C100.29 419.467 100.207 418.808 100.04 418.275C99.8734 417.742 99.5984 417.333 99.215 417.05C98.8317 416.767 98.3317 416.625 97.715 416.625C96.7817 416.625 96.0234 416.933 95.44 417.55C94.8567 418.167 94.565 419.067 94.565 420.25V428H91.915ZM110.868 428.3C109.734 428.3 108.743 428.017 107.893 427.45C107.059 426.883 106.418 426.083 105.968 425.05C105.534 424 105.318 422.767 105.318 421.35C105.318 419.933 105.543 418.708 105.993 417.675C106.443 416.625 107.084 415.817 107.918 415.25C108.751 414.683 109.734 414.4 110.868 414.4C111.784 414.4 112.601 414.592 113.318 414.975C114.034 415.358 114.576 415.892 114.943 416.575V410.25H117.593V428H115.118L115.043 426C114.676 426.717 114.118 427.283 113.368 427.7C112.634 428.1 111.801 428.3 110.868 428.3ZM111.568 426C112.284 426 112.893 425.817 113.393 425.45C113.893 425.083 114.276 424.55 114.543 423.85C114.809 423.15 114.943 422.317 114.943 421.35C114.943 420.35 114.809 419.508 114.543 418.825C114.276 418.125 113.893 417.6 113.393 417.25C112.893 416.883 112.284 416.7 111.568 416.7C110.501 416.7 109.651 417.117 109.018 417.95C108.384 418.767 108.068 419.9 108.068 421.35C108.068 422.783 108.384 423.917 109.018 424.75C109.651 425.583 110.501 426 111.568 426ZM126.333 428.3C125.067 428.3 123.958 428.017 123.008 427.45C122.058 426.883 121.325 426.075 120.808 425.025C120.292 423.975 120.033 422.75 120.033 421.35C120.033 419.933 120.292 418.708 120.808 417.675C121.325 416.642 122.058 415.842 123.008 415.275C123.958 414.692 125.067 414.4 126.333 414.4C127.6 414.4 128.708 414.692 129.658 415.275C130.608 415.842 131.342 416.642 131.858 417.675C132.375 418.708 132.633 419.933 132.633 421.35C132.633 422.75 132.375 423.975 131.858 425.025C131.342 426.075 130.608 426.883 129.658 427.45C128.708 428.017 127.6 428.3 126.333 428.3ZM126.333 426C127.467 426 128.342 425.592 128.958 424.775C129.575 423.942 129.883 422.8 129.883 421.35C129.883 419.9 129.575 418.767 128.958 417.95C128.342 417.117 127.467 416.7 126.333 416.7C125.217 416.7 124.342 417.117 123.708 417.95C123.092 418.767 122.783 419.9 122.783 421.35C122.783 422.8 123.092 423.942 123.708 424.775C124.342 425.592 125.217 426 126.333 426ZM137.371 428L133.321 414.7H136.096L138.946 425.1L141.871 414.7H144.371L147.296 425.1L150.171 414.7H152.946L148.896 428H145.921L143.121 418.5L140.321 428H137.371ZM159.565 428.3C158.315 428.3 157.257 428.108 156.39 427.725C155.54 427.342 154.882 426.817 154.415 426.15C153.949 425.467 153.682 424.683 153.615 423.8L156.34 423.675C156.474 424.408 156.79 424.992 157.29 425.425C157.79 425.858 158.549 426.075 159.565 426.075C160.399 426.075 161.057 425.942 161.54 425.675C162.024 425.408 162.265 424.983 162.265 424.4C162.265 424.083 162.182 423.817 162.015 423.6C161.865 423.367 161.565 423.175 161.115 423.025C160.665 422.858 159.999 422.7 159.115 422.55C157.799 422.3 156.765 422.008 156.015 421.675C155.265 421.342 154.732 420.917 154.415 420.4C154.099 419.883 153.94 419.258 153.94 418.525C153.94 417.308 154.39 416.317 155.29 415.55C156.207 414.783 157.524 414.4 159.24 414.4C160.39 414.4 161.357 414.6 162.14 415C162.924 415.383 163.532 415.908 163.965 416.575C164.415 417.225 164.699 417.958 164.815 418.775L162.09 418.925C162.007 418.458 161.84 418.058 161.59 417.725C161.357 417.375 161.04 417.108 160.64 416.925C160.24 416.725 159.765 416.625 159.215 416.625C158.365 416.625 157.732 416.792 157.315 417.125C156.899 417.458 156.69 417.892 156.69 418.425C156.69 418.825 156.782 419.15 156.965 419.4C157.165 419.65 157.482 419.858 157.915 420.025C158.349 420.175 158.924 420.308 159.64 420.425C161.024 420.658 162.107 420.95 162.89 421.3C163.674 421.633 164.224 422.05 164.54 422.55C164.857 423.05 165.015 423.658 165.015 424.375C165.015 425.208 164.782 425.917 164.315 426.5C163.849 427.083 163.207 427.533 162.39 427.85C161.574 428.15 160.632 428.3 159.565 428.3ZM177.246 428.3C175.862 428.3 174.754 427.983 173.921 427.35C173.104 426.717 172.696 425.825 172.696 424.675C172.696 423.525 173.037 422.633 173.721 422C174.421 421.35 175.496 420.883 176.946 420.6L181.521 419.725C181.521 418.692 181.279 417.925 180.796 417.425C180.312 416.908 179.596 416.65 178.646 416.65C177.796 416.65 177.129 416.842 176.646 417.225C176.162 417.592 175.829 418.142 175.646 418.875L172.921 418.7C173.171 417.367 173.787 416.317 174.771 415.55C175.771 414.783 177.062 414.4 178.646 414.4C180.446 414.4 181.812 414.883 182.746 415.85C183.696 416.8 184.171 418.142 184.171 419.875V425.05C184.171 425.367 184.221 425.592 184.321 425.725C184.437 425.842 184.621 425.9 184.871 425.9H185.346V428C185.262 428.017 185.129 428.033 184.946 428.05C184.762 428.067 184.571 428.075 184.371 428.075C183.804 428.075 183.312 427.983 182.896 427.8C182.496 427.617 182.196 427.317 181.996 426.9C181.796 426.467 181.696 425.892 181.696 425.175L181.971 425.3C181.837 425.883 181.546 426.4 181.096 426.85C180.662 427.3 180.104 427.658 179.421 427.925C178.754 428.175 178.029 428.3 177.246 428.3ZM177.671 426.2C178.471 426.2 179.154 426.05 179.721 425.75C180.287 425.433 180.729 425 181.046 424.45C181.362 423.9 181.521 423.275 181.521 422.575V421.725L177.621 422.475C176.821 422.625 176.254 422.867 175.921 423.2C175.604 423.517 175.446 423.925 175.446 424.425C175.446 424.992 175.637 425.433 176.021 425.75C176.421 426.05 176.971 426.2 177.671 426.2ZM187.333 428V414.7H189.758L189.858 418.25L189.533 418.075C189.683 417.208 189.966 416.508 190.383 415.975C190.8 415.442 191.308 415.05 191.908 414.8C192.508 414.533 193.158 414.4 193.858 414.4C194.858 414.4 195.683 414.625 196.333 415.075C197 415.508 197.5 416.108 197.833 416.875C198.183 417.625 198.358 418.483 198.358 419.45V428H195.708V420.25C195.708 419.467 195.625 418.808 195.458 418.275C195.291 417.742 195.016 417.333 194.633 417.05C194.25 416.767 193.75 416.625 193.133 416.625C192.2 416.625 191.441 416.933 190.858 417.55C190.275 418.167 189.983 419.067 189.983 420.25V428H187.333ZM206.286 428.3C205.152 428.3 204.161 428.017 203.311 427.45C202.477 426.883 201.836 426.083 201.386 425.05C200.952 424 200.736 422.767 200.736 421.35C200.736 419.933 200.961 418.708 201.411 417.675C201.861 416.625 202.502 415.817 203.336 415.25C204.169 414.683 205.152 414.4 206.286 414.4C207.202 414.4 208.019 414.592 208.736 414.975C209.452 415.358 209.994 415.892 210.361 416.575V410.25H213.011V428H210.536L210.461 426C210.094 426.717 209.536 427.283 208.786 427.7C208.052 428.1 207.219 428.3 206.286 428.3ZM206.986 426C207.702 426 208.311 425.817 208.811 425.45C209.311 425.083 209.694 424.55 209.961 423.85C210.227 423.15 210.361 422.317 210.361 421.35C210.361 420.35 210.227 419.508 209.961 418.825C209.694 418.125 209.311 417.6 208.811 417.25C208.311 416.883 207.702 416.7 206.986 416.7C205.919 416.7 205.069 417.117 204.436 417.95C203.802 418.767 203.486 419.9 203.486 421.35C203.486 422.783 203.802 423.917 204.436 424.75C205.069 425.583 205.919 426 206.986 426ZM227.825 428.3C226.558 428.3 225.45 428.017 224.5 427.45C223.55 426.883 222.816 426.075 222.3 425.025C221.783 423.975 221.525 422.75 221.525 421.35C221.525 419.933 221.783 418.708 222.3 417.675C222.816 416.642 223.55 415.842 224.5 415.275C225.45 414.692 226.558 414.4 227.825 414.4C229.091 414.4 230.2 414.692 231.15 415.275C232.1 415.842 232.833 416.642 233.35 417.675C233.866 418.708 234.125 419.933 234.125 421.35C234.125 422.75 233.866 423.975 233.35 425.025C232.833 426.075 232.1 426.883 231.15 427.45C230.2 428.017 229.091 428.3 227.825 428.3ZM227.825 426C228.958 426 229.833 425.592 230.45 424.775C231.066 423.942 231.375 422.8 231.375 421.35C231.375 419.9 231.066 418.767 230.45 417.95C229.833 417.117 228.958 416.7 227.825 416.7C226.708 416.7 225.833 417.117 225.2 417.95C224.583 418.767 224.275 419.9 224.275 421.35C224.275 422.8 224.583 423.942 225.2 424.775C225.833 425.592 226.708 426 227.825 426ZM241.164 428C239.898 428 238.964 427.708 238.364 427.125C237.764 426.542 237.464 425.633 237.464 424.4V411.575H240.114V424.2C240.114 424.817 240.248 425.242 240.514 425.475C240.781 425.708 241.189 425.825 241.739 425.825H243.639V428H241.164ZM235.439 416.875V414.7H243.639V416.875H235.439ZM245.922 428V410.25H248.572V417.7L248.247 417.65C248.397 416.9 248.672 416.292 249.072 415.825C249.472 415.342 249.964 414.983 250.547 414.75C251.13 414.517 251.772 414.4 252.472 414.4C253.439 414.4 254.255 414.617 254.922 415.05C255.589 415.467 256.089 416.058 256.422 416.825C256.772 417.592 256.947 418.467 256.947 419.45V428H254.297V420.15C254.297 418.95 254.089 418.067 253.672 417.5C253.272 416.917 252.639 416.625 251.772 416.625C250.805 416.625 250.03 416.933 249.447 417.55C248.864 418.15 248.572 419.033 248.572 420.2V428H245.922ZM265.624 428.3C264.324 428.3 263.199 428.017 262.249 427.45C261.316 426.883 260.591 426.075 260.074 425.025C259.574 423.975 259.324 422.75 259.324 421.35C259.324 419.95 259.574 418.733 260.074 417.7C260.591 416.65 261.316 415.842 262.249 415.275C263.183 414.692 264.283 414.4 265.549 414.4C266.749 414.4 267.808 414.683 268.724 415.25C269.641 415.8 270.349 416.6 270.849 417.65C271.366 418.7 271.624 419.967 271.624 421.45V422.125H262.074C262.141 423.425 262.483 424.4 263.099 425.05C263.733 425.7 264.583 426.025 265.649 426.025C266.433 426.025 267.083 425.842 267.599 425.475C268.116 425.108 268.474 424.617 268.674 424L271.424 424.175C271.074 425.408 270.383 426.408 269.349 427.175C268.333 427.925 267.091 428.3 265.624 428.3ZM262.074 420.125H268.824C268.741 418.942 268.399 418.067 267.799 417.5C267.216 416.933 266.466 416.65 265.549 416.65C264.599 416.65 263.816 416.95 263.199 417.55C262.599 418.133 262.224 418.992 262.074 420.125ZM274.06 428V414.7H276.485L276.585 418.225L276.36 418.15C276.543 416.95 276.91 416.075 277.46 415.525C278.026 414.975 278.785 414.7 279.735 414.7H281.01V417.075H279.735C279.068 417.075 278.51 417.183 278.06 417.4C277.61 417.617 277.268 417.95 277.035 418.4C276.818 418.85 276.71 419.433 276.71 420.15V428H274.06ZM296.978 428.4C295.261 428.4 293.786 428.033 292.553 427.3C291.319 426.55 290.369 425.483 289.703 424.1C289.036 422.717 288.703 421.067 288.703 419.15C288.703 417.233 289.036 415.583 289.703 414.2C290.369 412.8 291.319 411.725 292.553 410.975C293.786 410.225 295.261 409.85 296.978 409.85C298.711 409.85 300.194 410.225 301.428 410.975C302.678 411.725 303.628 412.8 304.278 414.2C304.944 415.583 305.278 417.233 305.278 419.15C305.278 421.067 304.944 422.717 304.278 424.1C303.628 425.483 302.678 426.55 301.428 427.3C300.194 428.033 298.711 428.4 296.978 428.4ZM296.978 425.925C298.128 425.925 299.111 425.658 299.928 425.125C300.761 424.592 301.394 423.825 301.828 422.825C302.261 421.808 302.478 420.583 302.478 419.15C302.478 417.717 302.261 416.492 301.828 415.475C301.394 414.458 300.761 413.683 299.928 413.15C299.111 412.6 298.128 412.325 296.978 412.325C295.844 412.325 294.869 412.6 294.053 413.15C293.236 413.683 292.603 414.458 292.153 415.475C291.719 416.492 291.503 417.717 291.503 419.15C291.503 420.583 291.719 421.808 292.153 422.825C292.603 423.825 293.236 424.592 294.053 425.125C294.869 425.658 295.844 425.925 296.978 425.925ZM308.002 431.75V414.7H310.502L310.577 417.55L310.277 417.4C310.61 416.417 311.16 415.675 311.927 415.175C312.694 414.658 313.577 414.4 314.577 414.4C315.877 414.4 316.944 414.725 317.777 415.375C318.627 416.008 319.252 416.85 319.652 417.9C320.069 418.95 320.277 420.1 320.277 421.35C320.277 422.6 320.069 423.75 319.652 424.8C319.252 425.85 318.627 426.7 317.777 427.35C316.944 427.983 315.877 428.3 314.577 428.3C313.91 428.3 313.285 428.183 312.702 427.95C312.119 427.717 311.619 427.392 311.202 426.975C310.802 426.542 310.519 426.033 310.352 425.45L310.652 425.15V431.75H308.002ZM314.102 426C315.169 426 316.002 425.592 316.602 424.775C317.219 423.958 317.527 422.817 317.527 421.35C317.527 419.883 317.219 418.742 316.602 417.925C316.002 417.108 315.169 416.7 314.102 416.7C313.402 416.7 312.794 416.875 312.277 417.225C311.76 417.558 311.36 418.075 311.077 418.775C310.794 419.475 310.652 420.333 310.652 421.35C310.652 422.367 310.785 423.225 311.052 423.925C311.335 424.625 311.735 425.15 312.252 425.5C312.785 425.833 313.402 426 314.102 426ZM328.193 428.3C326.893 428.3 325.768 428.017 324.818 427.45C323.884 426.883 323.159 426.075 322.643 425.025C322.143 423.975 321.893 422.75 321.893 421.35C321.893 419.95 322.143 418.733 322.643 417.7C323.159 416.65 323.884 415.842 324.818 415.275C325.751 414.692 326.851 414.4 328.118 414.4C329.318 414.4 330.376 414.683 331.293 415.25C332.209 415.8 332.918 416.6 333.418 417.65C333.934 418.7 334.193 419.967 334.193 421.45V422.125H324.643C324.709 423.425 325.051 424.4 325.668 425.05C326.301 425.7 327.151 426.025 328.218 426.025C329.001 426.025 329.651 425.842 330.168 425.475C330.684 425.108 331.043 424.617 331.243 424L333.993 424.175C333.643 425.408 332.951 426.408 331.918 427.175C330.901 427.925 329.659 428.3 328.193 428.3ZM324.643 420.125H331.393C331.309 418.942 330.968 418.067 330.368 417.5C329.784 416.933 329.034 416.65 328.118 416.65C327.168 416.65 326.384 416.95 325.768 417.55C325.168 418.133 324.793 418.992 324.643 420.125ZM336.628 428V414.7H339.053L339.153 418.225L338.928 418.15C339.111 416.95 339.478 416.075 340.028 415.525C340.595 414.975 341.353 414.7 342.303 414.7H343.578V417.075H342.303C341.636 417.075 341.078 417.183 340.628 417.4C340.178 417.617 339.836 417.95 339.603 418.4C339.386 418.85 339.278 419.433 339.278 420.15V428H336.628ZM348.99 428.3C347.606 428.3 346.498 427.983 345.665 427.35C344.848 426.717 344.44 425.825 344.44 424.675C344.44 423.525 344.781 422.633 345.465 422C346.165 421.35 347.24 420.883 348.69 420.6L353.265 419.725C353.265 418.692 353.023 417.925 352.54 417.425C352.056 416.908 351.34 416.65 350.39 416.65C349.54 416.65 348.873 416.842 348.39 417.225C347.906 417.592 347.573 418.142 347.39 418.875L344.665 418.7C344.915 417.367 345.531 416.317 346.515 415.55C347.515 414.783 348.806 414.4 350.39 414.4C352.19 414.4 353.556 414.883 354.49 415.85C355.44 416.8 355.915 418.142 355.915 419.875V425.05C355.915 425.367 355.965 425.592 356.065 425.725C356.181 425.842 356.365 425.9 356.615 425.9H357.09V428C357.006 428.017 356.873 428.033 356.69 428.05C356.506 428.067 356.315 428.075 356.115 428.075C355.548 428.075 355.056 427.983 354.64 427.8C354.24 427.617 353.94 427.317 353.74 426.9C353.54 426.467 353.44 425.892 353.44 425.175L353.715 425.3C353.581 425.883 353.29 426.4 352.84 426.85C352.406 427.3 351.848 427.658 351.165 427.925C350.498 428.175 349.773 428.3 348.99 428.3ZM349.415 426.2C350.215 426.2 350.898 426.05 351.465 425.75C352.031 425.433 352.473 425 352.79 424.45C353.106 423.9 353.265 423.275 353.265 422.575V421.725L349.365 422.475C348.565 422.625 347.998 422.867 347.665 423.2C347.348 423.517 347.19 423.925 347.19 424.425C347.19 424.992 347.381 425.433 347.765 425.75C348.165 426.05 348.715 426.2 349.415 426.2ZM363.494 428C362.227 428 361.294 427.708 360.694 427.125C360.094 426.542 359.794 425.633 359.794 424.4V411.575H362.444V424.2C362.444 424.817 362.577 425.242 362.844 425.475C363.11 425.708 363.519 425.825 364.069 425.825H365.969V428H363.494ZM357.769 416.875V414.7H365.969V416.875H357.769ZM368.251 428V414.7H370.901V428H368.251ZM368.201 412.775V410.125H370.951V412.775H368.201ZM374.617 428V414.7H377.042L377.142 418.25L376.817 418.075C376.967 417.208 377.251 416.508 377.667 415.975C378.084 415.442 378.592 415.05 379.192 414.8C379.792 414.533 380.442 414.4 381.142 414.4C382.142 414.4 382.967 414.625 383.617 415.075C384.284 415.508 384.784 416.108 385.117 416.875C385.467 417.625 385.642 418.483 385.642 419.45V428H382.992V420.25C382.992 419.467 382.909 418.808 382.742 418.275C382.576 417.742 382.301 417.333 381.917 417.05C381.534 416.767 381.034 416.625 380.417 416.625C379.484 416.625 378.726 416.933 378.142 417.55C377.559 418.167 377.267 419.067 377.267 420.25V428H374.617ZM394.195 432.05C393.145 432.05 392.22 431.892 391.42 431.575C390.62 431.258 389.961 430.808 389.445 430.225C388.928 429.658 388.578 428.992 388.395 428.225L391.145 428.05C391.328 428.6 391.645 429.033 392.095 429.35C392.561 429.683 393.261 429.85 394.195 429.85C395.295 429.85 396.136 429.617 396.72 429.15C397.32 428.683 397.62 427.975 397.62 427.025V425.1C397.303 425.783 396.795 426.325 396.095 426.725C395.395 427.125 394.611 427.325 393.745 427.325C392.628 427.325 391.636 427.05 390.77 426.5C389.903 425.95 389.228 425.192 388.745 424.225C388.261 423.258 388.02 422.142 388.02 420.875C388.02 419.592 388.253 418.467 388.72 417.5C389.203 416.533 389.87 415.775 390.72 415.225C391.586 414.675 392.561 414.4 393.645 414.4C394.595 414.4 395.428 414.617 396.145 415.05C396.878 415.483 397.403 416.067 397.72 416.8V414.7H400.27V426.95C400.27 428.05 400.02 428.975 399.52 429.725C399.036 430.492 398.336 431.067 397.42 431.45C396.52 431.85 395.445 432.05 394.195 432.05ZM394.17 425.075C395.203 425.075 396.028 424.7 396.645 423.95C397.278 423.2 397.603 422.167 397.62 420.85C397.636 419.983 397.503 419.242 397.22 418.625C396.936 417.992 396.528 417.508 395.995 417.175C395.478 416.825 394.87 416.65 394.17 416.65C393.086 416.65 392.245 417.033 391.645 417.8C391.061 418.55 390.77 419.567 390.77 420.85C390.77 422.15 391.07 423.183 391.67 423.95C392.286 424.7 393.12 425.075 394.17 425.075ZM68.8898 460.4C67.4732 460.4 66.2398 460.142 65.1898 459.625C64.1565 459.108 63.3398 458.392 62.7398 457.475C62.1398 456.558 61.7898 455.492 61.6898 454.275L64.4648 454.1C64.5815 454.933 64.8232 455.642 65.1898 456.225C65.5565 456.792 66.0482 457.225 66.6648 457.525C67.2982 457.808 68.0565 457.95 68.9398 457.95C69.7065 457.95 70.3565 457.858 70.8898 457.675C71.4398 457.475 71.8565 457.183 72.1398 456.8C72.4232 456.417 72.5648 455.95 72.5648 455.4C72.5648 454.9 72.4398 454.458 72.1898 454.075C71.9565 453.675 71.4982 453.317 70.8148 453C70.1482 452.667 69.1648 452.342 67.8648 452.025C66.4482 451.675 65.3148 451.292 64.4648 450.875C63.6148 450.458 62.9982 449.942 62.6148 449.325C62.2482 448.692 62.0648 447.917 62.0648 447C62.0648 445.983 62.3065 445.092 62.7898 444.325C63.2898 443.542 63.9982 442.933 64.9148 442.5C65.8315 442.067 66.9315 441.85 68.2148 441.85C69.5648 441.85 70.7148 442.1 71.6648 442.6C72.6315 443.1 73.3898 443.783 73.9398 444.65C74.5065 445.517 74.8565 446.508 74.9898 447.625L72.2148 447.775C72.1315 447.092 71.9232 446.492 71.5898 445.975C71.2565 445.442 70.8065 445.033 70.2398 444.75C69.6732 444.45 68.9815 444.3 68.1648 444.3C67.1315 444.3 66.3148 444.542 65.7148 445.025C65.1315 445.492 64.8398 446.117 64.8398 446.9C64.8398 447.4 64.9565 447.825 65.1898 448.175C65.4398 448.508 65.8732 448.8 66.4898 449.05C67.1232 449.3 68.0148 449.567 69.1648 449.85C70.6982 450.2 71.9148 450.633 72.8148 451.15C73.7315 451.65 74.3815 452.242 74.7648 452.925C75.1482 453.608 75.3398 454.383 75.3398 455.25C75.3398 456.3 75.0648 457.217 74.5148 458C73.9815 458.767 73.2315 459.358 72.2648 459.775C71.2982 460.192 70.1732 460.4 68.8898 460.4ZM78.6572 463.75V461.575H80.2822C80.7322 461.575 81.0656 461.508 81.2822 461.375C81.4989 461.242 81.6656 461.017 81.7822 460.7L82.2072 459.6H81.3822L76.5822 446.7H79.3822L83.0322 457.15L86.5072 446.7H89.3322L84.0322 461.55C83.7656 462.317 83.3656 462.875 82.8322 463.225C82.3156 463.575 81.5906 463.75 80.6572 463.75H78.6572ZM95.917 460.3C94.667 460.3 93.6087 460.108 92.742 459.725C91.892 459.342 91.2337 458.817 90.767 458.15C90.3003 457.467 90.0337 456.683 89.967 455.8L92.692 455.675C92.8253 456.408 93.142 456.992 93.642 457.425C94.142 457.858 94.9003 458.075 95.917 458.075C96.7503 458.075 97.4087 457.942 97.892 457.675C98.3753 457.408 98.617 456.983 98.617 456.4C98.617 456.083 98.5337 455.817 98.367 455.6C98.217 455.367 97.917 455.175 97.467 455.025C97.017 454.858 96.3503 454.7 95.467 454.55C94.1503 454.3 93.117 454.008 92.367 453.675C91.617 453.342 91.0837 452.917 90.767 452.4C90.4503 451.883 90.292 451.258 90.292 450.525C90.292 449.308 90.742 448.317 91.642 447.55C92.5587 446.783 93.8753 446.4 95.592 446.4C96.742 446.4 97.7087 446.6 98.492 447C99.2753 447.383 99.8837 447.908 100.317 448.575C100.767 449.225 101.05 449.958 101.167 450.775L98.442 450.925C98.3587 450.458 98.192 450.058 97.942 449.725C97.7087 449.375 97.392 449.108 96.992 448.925C96.592 448.725 96.117 448.625 95.567 448.625C94.717 448.625 94.0837 448.792 93.667 449.125C93.2503 449.458 93.042 449.892 93.042 450.425C93.042 450.825 93.1337 451.15 93.317 451.4C93.517 451.65 93.8337 451.858 94.267 452.025C94.7003 452.175 95.2753 452.308 95.992 452.425C97.3753 452.658 98.4587 452.95 99.242 453.3C100.025 453.633 100.575 454.05 100.892 454.55C101.209 455.05 101.367 455.658 101.367 456.375C101.367 457.208 101.134 457.917 100.667 458.5C100.2 459.083 99.5587 459.533 98.742 459.85C97.9253 460.15 96.9837 460.3 95.917 460.3ZM108.411 460C107.144 460 106.211 459.708 105.611 459.125C105.011 458.542 104.711 457.633 104.711 456.4V443.575H107.361V456.2C107.361 456.817 107.494 457.242 107.761 457.475C108.027 457.708 108.436 457.825 108.986 457.825H110.886V460H108.411ZM102.686 448.875V446.7H110.886V448.875H102.686ZM118.423 460.3C117.123 460.3 115.998 460.017 115.048 459.45C114.115 458.883 113.39 458.075 112.873 457.025C112.373 455.975 112.123 454.75 112.123 453.35C112.123 451.95 112.373 450.733 112.873 449.7C113.39 448.65 114.115 447.842 115.048 447.275C115.982 446.692 117.082 446.4 118.348 446.4C119.548 446.4 120.607 446.683 121.523 447.25C122.44 447.8 123.148 448.6 123.648 449.65C124.165 450.7 124.423 451.967 124.423 453.45V454.125H114.873C114.94 455.425 115.282 456.4 115.898 457.05C116.532 457.7 117.382 458.025 118.448 458.025C119.232 458.025 119.882 457.842 120.398 457.475C120.915 457.108 121.273 456.617 121.473 456L124.223 456.175C123.873 457.408 123.182 458.408 122.148 459.175C121.132 459.925 119.89 460.3 118.423 460.3ZM114.873 452.125H121.623C121.54 450.942 121.198 450.067 120.598 449.5C120.015 448.933 119.265 448.65 118.348 448.65C117.398 448.65 116.615 448.95 115.998 449.55C115.398 450.133 115.023 450.992 114.873 452.125ZM126.858 460V446.7H129.283L129.358 450L129.058 449.9C129.208 449.167 129.467 448.542 129.833 448.025C130.217 447.508 130.683 447.108 131.233 446.825C131.783 446.542 132.383 446.4 133.033 446.4C134.167 446.4 135.092 446.725 135.808 447.375C136.525 448.008 136.975 448.883 137.158 450H136.733C136.883 449.217 137.133 448.567 137.483 448.05C137.85 447.517 138.317 447.108 138.883 446.825C139.45 446.542 140.092 446.4 140.808 446.4C141.742 446.4 142.533 446.6 143.183 447C143.85 447.383 144.35 447.95 144.683 448.7C145.033 449.45 145.208 450.367 145.208 451.45V460H142.558V452.1C142.558 450.95 142.35 450.083 141.933 449.5C141.517 448.917 140.883 448.625 140.033 448.625C139.483 448.625 139 448.767 138.583 449.05C138.167 449.333 137.842 449.742 137.608 450.275C137.392 450.808 137.283 451.45 137.283 452.2V460H134.758V452.2C134.758 451.067 134.567 450.192 134.183 449.575C133.817 448.942 133.183 448.625 132.283 448.625C131.717 448.625 131.225 448.767 130.808 449.05C130.408 449.333 130.092 449.75 129.858 450.3C129.625 450.833 129.508 451.467 129.508 452.2V460H126.858ZM153.56 460.3C152.31 460.3 151.251 460.108 150.385 459.725C149.535 459.342 148.876 458.817 148.41 458.15C147.943 457.467 147.676 456.683 147.61 455.8L150.335 455.675C150.468 456.408 150.785 456.992 151.285 457.425C151.785 457.858 152.543 458.075 153.56 458.075C154.393 458.075 155.051 457.942 155.535 457.675C156.018 457.408 156.26 456.983 156.26 456.4C156.26 456.083 156.176 455.817 156.01 455.6C155.86 455.367 155.56 455.175 155.11 455.025C154.66 454.858 153.993 454.7 153.11 454.55C151.793 454.3 150.76 454.008 150.01 453.675C149.26 453.342 148.726 452.917 148.41 452.4C148.093 451.883 147.935 451.258 147.935 450.525C147.935 449.308 148.385 448.317 149.285 447.55C150.201 446.783 151.518 446.4 153.235 446.4C154.385 446.4 155.351 446.6 156.135 447C156.918 447.383 157.526 447.908 157.96 448.575C158.41 449.225 158.693 449.958 158.81 450.775L156.085 450.925C156.001 450.458 155.835 450.058 155.585 449.725C155.351 449.375 155.035 449.108 154.635 448.925C154.235 448.725 153.76 448.625 153.21 448.625C152.36 448.625 151.726 448.792 151.31 449.125C150.893 449.458 150.685 449.892 150.685 450.425C150.685 450.825 150.776 451.15 150.96 451.4C151.16 451.65 151.476 451.858 151.91 452.025C152.343 452.175 152.918 452.308 153.635 452.425C155.018 452.658 156.101 452.95 156.885 453.3C157.668 453.633 158.218 454.05 158.535 454.55C158.851 455.05 159.01 455.658 159.01 456.375C159.01 457.208 158.776 457.917 158.31 458.5C157.843 459.083 157.201 459.533 156.385 459.85C155.568 460.15 154.626 460.3 153.56 460.3ZM160.861 460V456.85H164.086V460H160.861Z" fill="#171717"/>
</svg>
