<svg width="150" height="150" viewBox="0 0 150 150" fill="none" xmlns="http://www.w3.org/2000/svg">
<path d="M87.6396 12.5H37.6396C34.3244 12.5 31.145 13.817 28.8008 16.1612C26.4566 18.5054 25.1396 21.6848 25.1396 25V125C25.1396 128.315 26.4566 131.495 28.8008 133.839C31.145 136.183 34.3244 137.5 37.6396 137.5H112.64C115.955 137.5 119.134 136.183 121.478 133.839C123.823 131.495 125.14 128.315 125.14 125V50L87.6396 12.5Z" stroke="white" stroke-width="8" stroke-linecap="round" stroke-linejoin="round"/>
<path d="M87.6396 12.5V50H125.14" stroke="white" stroke-width="8" stroke-linecap="round" stroke-linejoin="round"/>
<path d="M100.14 81.25H50.1396" stroke="white" stroke-width="8" stroke-linecap="round" stroke-linejoin="round"/>
<path d="M100.14 106.25H50.1396" stroke="white" stroke-width="8" stroke-linecap="round" stroke-linejoin="round"/>
<path d="M62.6396 56.25H56.3896H50.1396" stroke="white" stroke-width="8" stroke-linecap="round" stroke-linejoin="round"/>
</svg>
