<svg width="41" height="40" viewBox="0 0 41 40" fill="none" xmlns="http://www.w3.org/2000/svg">
<path fill-rule="evenodd" clip-rule="evenodd" d="M20.4389 0C9.13673 0 0 9.16667 0 20.5071C0 29.5721 5.85421 37.2454 13.9756 39.9612C14.9909 40.1654 15.3629 39.52 15.3629 38.9771C15.3629 38.5017 15.3294 36.8721 15.3294 35.1742C9.64379 36.3967 8.45981 32.7296 8.45981 32.7296C7.54609 30.3529 6.19226 29.7421 6.19226 29.7421C4.33136 28.4858 6.32781 28.4858 6.32781 28.4858C8.39203 28.6217 9.47518 30.5908 9.47518 30.5908C11.3022 33.7142 14.2462 32.8317 15.4306 32.2883C15.5997 30.9642 16.1415 30.0475 16.7167 29.5383C12.182 29.0629 7.41096 27.2975 7.41096 19.4204C7.41096 17.1796 8.22259 15.3462 9.50865 13.9204C9.30575 13.4113 8.59494 11.3058 9.71198 8.48792C9.71198 8.48792 11.4377 7.94458 15.329 10.5929C16.995 10.144 18.7131 9.91567 20.4389 9.91375C22.1647 9.91375 23.9239 10.1517 25.5484 10.5929C29.4401 7.94458 31.1659 8.48792 31.1659 8.48792C32.2829 11.3058 31.5717 13.4113 31.3688 13.9204C32.6887 15.3462 33.4669 17.1796 33.4669 19.4204C33.4669 27.2975 28.6958 29.0287 24.1272 29.5383C24.8719 30.1833 25.5146 31.4054 25.5146 33.3408C25.5146 36.0908 25.4811 38.2979 25.4811 38.9767C25.4811 39.52 25.8534 40.1654 26.8684 39.9617C34.9897 37.245 40.844 29.5721 40.844 20.5071C40.8774 9.16667 31.7072 0 20.4389 0Z" fill="white"/>
</svg>
