<svg width="150" height="150" viewBox="0 0 150 150" fill="none" xmlns="http://www.w3.org/2000/svg">
<path d="M118.75 68.75H31.25C24.3464 68.75 18.75 74.3464 18.75 81.25V125C18.75 131.904 24.3464 137.5 31.25 137.5H118.75C125.654 137.5 131.25 131.904 131.25 125V81.25C131.25 74.3464 125.654 68.75 118.75 68.75Z" stroke="white" stroke-width="8" stroke-linecap="round" stroke-linejoin="round"/>
<path d="M43.75 68.75V43.75C43.75 35.462 47.0424 27.5134 52.9029 21.6529C58.7634 15.7924 66.712 12.5 75 12.5C83.288 12.5 91.2366 15.7924 97.0971 21.6529C102.958 27.5134 106.25 35.462 106.25 43.75V68.75" stroke="white" stroke-width="8" stroke-linecap="round" stroke-linejoin="round"/>
</svg>
