<svg width="149" height="52" viewBox="0 0 149 52" fill="none" xmlns="http://www.w3.org/2000/svg">
<path d="M44.2596 7.45924C41.9796 5.20201 39.266 3.44242 36.1285 2.17721C32.9878 0.915245 29.5053 0.284264 25.6812 0.284264C21.8571 0.284264 18.4339 0.915245 15.2701 2.17721C12.1064 3.43917 9.39598 5.20201 7.13897 7.45924C4.88197 9.71646 3.12761 12.4258 1.8792 15.5807C0.624208 18.7388 0 22.2125 0 26.0016C0 29.7908 0.624208 33.2612 1.87591 36.4193C3.12761 39.5775 4.87868 42.2835 7.13569 44.5408C9.39269 46.798 12.1031 48.5608 15.2668 49.8228C18.4306 51.0848 21.8999 51.7157 25.678 51.7157C29.4561 51.7157 32.9878 51.0848 36.1252 49.8228C39.2627 48.5608 41.9764 46.8012 44.2564 44.5408C46.5364 42.2803 48.3039 39.5742 49.5556 36.4193C50.8073 33.2612 51.4315 29.7908 51.4315 26.0016C51.4315 22.2125 50.8073 18.7421 49.5556 15.5839C48.3039 12.4258 46.5397 9.71971 44.2564 7.46249L44.2596 7.45924ZM38.3001 31.791C37.6365 33.5149 36.7166 34.9947 35.5404 36.2339C34.3643 37.4731 32.9385 38.4326 31.2728 39.1124C29.6039 39.7921 27.7411 40.1337 25.6812 40.1337C23.6214 40.1337 21.7684 39.7954 20.1258 39.1124C18.4831 38.4326 17.0606 37.4731 15.8582 36.2339C14.6558 34.9947 13.7359 33.5149 13.0985 31.791C12.4612 30.0672 12.1425 28.1385 12.1425 25.9984C12.1425 23.8582 12.4612 21.9328 13.0985 20.2057C13.7359 18.4819 14.6558 16.9988 15.8582 15.7628C17.0606 14.5236 18.4831 13.5674 20.1258 12.8844C21.7684 12.2046 23.6214 11.8631 25.6812 11.8631C27.7411 11.8631 29.6039 12.2046 31.2728 12.8844C32.9385 13.5641 34.3643 14.5236 35.5404 15.7628C36.7166 17.002 37.6365 18.4819 38.3001 20.2057C38.9637 21.9295 39.2923 23.8615 39.2923 25.9984C39.2923 28.1353 38.9604 30.0672 38.3001 31.791Z" fill="white"/>
<path d="M94.4976 8.28047C92.0338 6.15421 89.0192 4.54479 85.4472 3.44568C81.8752 2.34657 77.8249 1.79701 73.2964 1.79701H54.4569V50.9594H73.2964C77.8282 50.9594 81.8785 50.4099 85.4472 49.3108C89.0159 48.2117 92.0338 46.599 94.4976 44.476C96.958 42.3497 98.8446 39.7753 100.147 36.7462C101.45 33.7171 102.107 30.2497 102.107 26.3406C102.107 22.4316 101.454 19.0394 100.147 16.0102C98.8413 12.9811 96.958 10.4067 94.4976 8.28047ZM88.8081 32.3498C88.1188 34.1096 87.1194 35.5849 85.8166 36.7822C84.5105 37.9794 82.8976 38.8823 80.9781 39.494C79.0585 40.1057 76.8651 40.4099 74.4047 40.4099H66.723V12.3465H74.4047C79.4279 12.3465 83.2571 13.5438 85.8924 15.9383C88.5277 18.3328 89.8437 21.7741 89.8437 26.2686C89.8437 28.565 89.4974 30.5899 88.8081 32.3498Z" fill="white"/>
<path d="M147.332 12.6587C146.221 10.1069 144.679 7.90691 142.701 6.06537C140.723 4.22384 138.371 2.79993 135.643 1.79367C132.916 0.787398 129.913 0.284264 126.63 0.284264C123.346 0.284264 120.321 0.800551 117.691 1.82984C115.06 2.86241 112.804 4.34551 110.923 6.2857C109.042 8.22589 107.604 10.5574 106.615 13.2835C105.626 16.0097 105.132 19.091 105.132 22.5274V50.9594H117.148V41.0151H129.092C131.988 41.0151 134.667 40.5251 137.127 39.5419C139.589 38.5586 141.687 37.184 143.425 35.4181C145.164 33.6522 146.524 31.5509 147.517 29.1207C148.506 26.6906 149 24.0269 149 21.1298C149 18.0354 148.444 15.2139 147.336 12.6587H147.332ZM136.765 25.1055C136.231 26.2828 135.485 27.3022 134.522 28.1605C133.555 29.0188 132.373 29.6699 130.973 30.1139C129.574 30.5545 128.006 30.7781 126.268 30.7781L117.148 30.7683V22.2347C117.148 20.5181 117.364 18.9824 117.801 17.6309C118.234 16.2826 118.886 15.1514 119.756 14.2438C120.625 13.3362 121.675 12.6357 122.903 12.1457C124.135 11.6557 125.547 11.4091 127.137 11.4091C128.727 11.4091 130.165 11.6426 131.445 12.1096C132.725 12.5765 133.807 13.2276 134.703 14.0629C135.595 14.8982 136.296 15.9044 136.803 17.0817C137.311 18.259 137.563 19.5875 137.563 21.0607C137.563 22.534 137.298 23.9316 136.768 25.1121L136.765 25.1055Z" fill="white"/>
</svg>
