<svg width="150" height="150" viewBox="0 0 150 150" fill="none" xmlns="http://www.w3.org/2000/svg">
<path d="M106.25 131.25V118.75C106.25 112.12 103.616 105.761 98.9277 101.072C94.2393 96.3839 87.8804 93.75 81.25 93.75H31.25C24.6196 93.75 18.2607 96.3839 13.5723 101.072C8.88392 105.761 6.25 112.12 6.25 118.75V131.25" stroke="white" stroke-width="8" stroke-linecap="round" stroke-linejoin="round"/>
<path d="M56.25 68.75C70.0571 68.75 81.25 57.5571 81.25 43.75C81.25 29.9429 70.0571 18.75 56.25 18.75C42.4429 18.75 31.25 29.9429 31.25 43.75C31.25 57.5571 42.4429 68.75 56.25 68.75Z" stroke="white" stroke-width="8" stroke-linecap="round" stroke-linejoin="round"/>
<path d="M143.75 131.25V118.75C143.746 113.211 141.902 107.83 138.509 103.452C135.115 99.0741 130.363 95.9473 125 94.5625" stroke="white" stroke-width="8" stroke-linecap="round" stroke-linejoin="round"/>
<path d="M100 19.5625C105.378 20.9394 110.144 24.0669 113.548 28.4519C116.952 32.837 118.799 38.2302 118.799 43.7812C118.799 49.3323 116.952 54.7255 113.548 59.1106C110.144 63.4956 105.378 66.6231 100 68" stroke="white" stroke-width="8" stroke-linecap="round" stroke-linejoin="round"/>
</svg>
