<svg width="96" height="96" xmlns="http://www.w3.org/2000/svg" xmlns:xlink="http://www.w3.org/1999/xlink" xml:space="preserve" overflow="hidden"><g transform="translate(-971 -178)"><path d="M1004 208.8C1004 213.771 999.971 217.8 995 217.8 990.029 217.8 986 213.771 986 208.8 986 203.829 990.029 199.8 995 199.8 999.971 199.8 1004 203.829 1004 208.8Z" fill="#D9D9D9"/><path d="M1052 208.8C1052 213.771 1047.97 217.8 1043 217.8 1038.03 217.8 1034 213.771 1034 208.8 1034 203.829 1038.03 199.8 1043 199.8 1047.97 199.8 1052 203.829 1052 208.8Z" fill="#D9D9D9"/><path d="M1037 252.2 1037 243.2C1037 241.8 1036.4 240.4 1035.2 239.6 1032.8 237.6 1029.6 236.2 1026.4 235.4 1024.2 234.8 1021.6 234.2 1019 234.2 1016.6 234.2 1014 234.6 1011.6 235.4 1008.4 236.2 1005.4 237.8 1002.8 239.6 1001.6 240.6 1001 241.8 1001 243.2L1001 252.2 1037 252.2Z" fill="#D9D9D9"/><path d="M1028 222.8C1028 227.771 1023.97 231.8 1019 231.8 1014.03 231.8 1010 227.771 1010 222.8 1010 217.829 1014.03 213.8 1019 213.8 1023.97 213.8 1028 217.829 1028 222.8Z" fill="#D9D9D9"/><path d="M1059.2 225.6C1056.8 223.6 1053.6 222.2 1050.4 221.4 1048.2 220.8 1045.6 220.2 1043 220.2 1040.6 220.2 1038 220.6 1035.6 221.4 1034.4 221.8 1033.2 222.2 1032 222.8L1032 223C1032 226.4 1030.6 229.6 1028.4 231.8 1032.2 233 1035.2 234.6 1037.6 236.4 1038.2 237 1038.8 237.4 1039.2 238.2L1061 238.2 1061 229.2C1061 227.8 1060.4 226.4 1059.2 225.6Z" fill="#D9D9D9"/><path d="M1000.4 236.4 1000.4 236.4C1003.2 234.4 1006.4 232.8 1009.6 231.8 1007.4 229.4 1006 226.4 1006 223 1006 222.8 1006 222.8 1006 222.6 1004.8 222.2 1003.6 221.6 1002.4 221.4 1000.2 220.8 997.6 220.2 995 220.2 992.6 220.2 990 220.6 987.6 221.4 984.4 222.4 981.4 223.8 978.8 225.6 977.6 226.4 977 227.8 977 229.2L977 238.2 998.6 238.2C999.2 237.4 999.6 237 1000.4 236.4Z" fill="#D9D9D9"/></g></svg>