<svg width="96" height="96" xmlns="http://www.w3.org/2000/svg" xmlns:xlink="http://www.w3.org/1999/xlink" xml:space="preserve" overflow="hidden"><g transform="translate(-833 -470)"><path d="M881 480C860.013 480 843 497.013 843 518 843 538.987 860.013 556 881 556 901.987 556 919 538.987 919 518 919 497.013 901.987 480 881 480ZM900.83 534.22C892.422 545.172 876.728 547.234 865.776 538.826 864.046 537.498 862.498 535.95 861.17 534.22 860.496 533.345 860.66 532.089 861.535 531.415 862.41 530.741 863.666 530.905 864.34 531.78 871.401 540.981 884.583 542.716 893.784 535.656 895.24 534.539 896.543 533.236 897.66 531.78 898.334 530.905 899.59 530.741 900.465 531.415 901.34 532.089 901.504 533.345 900.83 534.22ZM908.32 509.31 907.56 509.88C907.43 512.43 907.11 516.18 906.03 518.09 904.57 520.63 900.03 523.5 895.47 523.5 887.47 523.5 883.63 517.39 882.17 511.79 881.982 511.205 881.444 510.803 880.83 510.79 880.209 510.784 879.661 511.193 879.49 511.79 878.09 517.39 874.28 523.5 866.19 523.5 861.61 523.5 857.09 520.63 855.63 518.09 854.48 516.24 854.17 512.43 854.1 509.88L853.34 509.24C852.973 508.938 852.782 508.473 852.83 508L852.83 505.4C852.836 505.167 852.988 504.962 853.21 504.89 854.68 504.38 860.78 502.47 865.56 502.47 869.56 502.47 878.73 504.47 880.83 504.95 882.93 504.5 892.09 502.47 896.1 502.47 900.94 502.47 907.05 504.38 908.45 504.89 908.64 504.95 908.77 505.14 908.83 505.46L908.83 508.1C908.852 508.56 908.664 509.005 908.32 509.31Z" fill="#D9D9D9"/></g></svg>