<svg width="96" height="96" xmlns="http://www.w3.org/2000/svg" xmlns:xlink="http://www.w3.org/1999/xlink" xml:space="preserve" overflow="hidden"><g transform="translate(-282 -470)"><path d="M316.59 534.41 305.17 523 316.59 511.59 319.41 514.41 310.83 523 319.41 531.59 316.59 534.41Z" fill="#D9D9D9"/><path d="M343.41 534.41 340.59 531.59 349.17 523 340.59 514.41 343.41 511.59 354.83 523 343.41 534.41Z" fill="#D9D9D9"/><path d="M323.301 534.322 332.869 511.236 336.564 512.767 326.997 535.853Z" fill="#D9D9D9"/><path d="M290 487 290 549 370 549 370 487ZM359 493C360.105 493 361 493.895 361 495 361 496.105 360.105 497 359 497 357.895 497 357 496.105 357 495 357 493.895 357.895 493 359 493ZM352 493C353.105 493 354 493.895 354 495 354 496.105 353.105 497 352 497 350.895 497 350 496.105 350 495 350 493.895 350.895 493 352 493ZM345 493C346.105 493 347 493.895 347 495 347 496.105 346.105 497 345 497 343.895 497 343 496.105 343 495 343 493.895 343.895 493 345 493ZM364 543 296 543 296 503 364 503Z" fill="#D9D9D9"/></g></svg>