<svg width="96" height="96" xmlns="http://www.w3.org/2000/svg" xmlns:xlink="http://www.w3.org/1999/xlink" xml:space="preserve" overflow="hidden"><g transform="translate(-557 -470)"><path d="M573.5 552.8C572.8 553.5 571.9 553.7 571 553.3 570.1 552.9 569.6 552.1 569.6 551.2 569.6 550.3 570.2 549.4 571 549.1 571.9 548.7 572.8 548.9 573.5 549.6 574.4 550.4 574.4 551.9 573.5 552.8ZM644.1 486.9 636 495 629.6 493.3 628 487 636.1 478.9C631.3 477.1 625.9 478.2 622.1 481.6 618.3 485.1 616.8 490.3 618.1 495.3L567.1 546.3C565.3 548 564.6 550.6 565.2 553 565.8 555.4 567.7 557.3 570.1 557.9 572.5 558.5 575 557.8 576.8 556L627.8 505C632.8 506.3 638 504.8 641.5 501 644.9 497.2 646 491.7 644.1 486.9Z" fill="#D9D9D9"/><path d="M643.7 546.3 617.9 520.5 607.5 530.9 632.5 555.9 633.4 556.8 633.5 556.7C636.4 558.8 640.4 558.4 642.9 555.9 645.4 553.3 645.7 549.3 643.7 546.3L643.7 546.3Z" fill="#D9D9D9"/><path d="M579.6 489.8 579.7 489.7 577.1 484.9 568.5 478 565 481.5 571.9 490.1 576.7 492.7 576.8 492.6 595.9 511.7 598.7 508.9Z" fill="#D9D9D9"/></g></svg>